<?xml version="1.0" encoding="utf-8"?>
<!-- Generator: Adobe Illustrator 19.0.0, SVG Export Plug-In . SVG Version: 6.00 Build 0)  -->
<svg version="1.1" id="svg_7" xmlns="http://www.w3.org/2000/svg" xmlns:xlink="http://www.w3.org/1999/xlink" x="0px" y="0px"
	 viewBox="0 0 113.1 236.8" style="enable-background:new 0 0 113.1 236.8;" xml:space="preserve">
<style type="text/css">

	#svg_7:hover {
	background-color: black;
	fill:white;
}
	.st0{fill:#FFFFFF;}
	.st1{font-family:'3ds-CondensedBold';}
	.st2{font-size:12px;}
</style>
<g id="XMLID_1_">
	<circle id="XMLID_31_" class="st0" cx="44.4" cy="41.6" r="25.5"/>
	<path id="XMLID_27_" d="M69.9,41.2c0,0,0,0.6,0,1.8c0,0.6,0,1.3-0.1,2.2c0,0.4,0,0.9-0.1,1.4c-0.1,0.5-0.1,1-0.2,1.6
		c-0.4,2.2-0.9,5-2.3,7.9c-0.3,0.7-0.8,1.5-1.2,2.2c-0.4,0.8-1,1.4-1.5,2.2c-0.6,0.7-1.3,1.3-2,2c-0.8,0.6-1.6,1.2-2.4,1.8
		c-3.3,2.3-7.5,4-12.1,4.6C47.4,69,46.8,69,46.2,69l-0.9,0.1l-0.4,0c0.1,0-0.2,0-0.2,0l-0.1,0l-0.1,0l-0.2,0c-1.1-0.1-2.2,0-3.5-0.2
		c-2.5-0.3-4.9-1-7.2-1.9c-2.3-1-4.5-2.4-6.6-4c-2-1.7-3.8-3.6-5.3-5.8c-1.5-2.2-2.7-4.6-3.5-7.2c-0.4-1.3-0.7-2.6-0.9-3.9
		c-0.1-0.7-0.2-1.3-0.3-2l-0.1-2.1c0.1-1.3,0-2.4,0.3-3.9c0.1-1.4,0.5-2.7,0.8-4c0.8-2.6,1.9-5,3.3-7.3c1.5-2.2,3.2-4.2,5.2-5.9
		c2-1.7,4.1-3.1,6.5-4.2c2.3-1,4.7-1.8,7.1-2.2c1.2-0.3,2.4-0.3,3.6-0.4l0.2,0l0.1,0l0.1,0l0.2,0l0.4,0l0.8,0c0.6,0,1.1,0,1.7,0.1
		c1.2,0.2,2.4,0.3,3.5,0.6c0.5,0.1,1.1,0.3,1.6,0.4c0.5,0.2,1,0.4,1.6,0.5c2.1,0.7,3.9,1.7,5.7,2.8c1.6,1.2,3.3,2.2,4.5,3.7
		c0.6,0.7,1.2,1.4,1.6,2.2c0.4,0.8,0.9,1.4,1.3,2.2c1.5,2.9,2.1,5.6,2.5,7.8c0.1,0.5,0.2,1.1,0.3,1.6c0.1,0.5,0.1,1,0.2,1.4
		c0.1,0.8,0.2,1.6,0.2,2.2C69.9,40.6,69.9,41.2,69.9,41.2z M69.9,41.2c0,0,0-0.6-0.1-1.8c0-0.3,0-0.6-0.1-1
		c-0.1-0.4-0.2-0.7-0.3-1.2c-0.1-0.4-0.2-0.9-0.3-1.3c-0.2-0.5-0.4-0.9-0.6-1.4c-0.8-2-2.2-4.3-4.2-6.4c-1-1.1-2.1-2.1-3.3-3.1
		c-0.6-0.5-1.3-1-1.8-1.6c-0.6-0.5-1.3-1-2-1.5c-1.5-0.9-3.1-1.8-4.8-2.4c-0.4-0.2-0.9-0.3-1.3-0.5c-0.5-0.1-0.9-0.2-1.4-0.3
		c-0.9-0.3-1.9-0.3-2.8-0.5c-0.5-0.1-1.1-0.1-1.6-0.1l-0.8,0l-0.4,0c-0.1,0,0.1,0,0.1,0l0,0l-0.1,0l-0.2,0c-1,0.1-2.1,0.1-3.1,0.3
		c-2.1,0.3-4.1,1-6.1,1.8c-2,0.9-3.8,2.1-5.5,3.6c-1.7,1.5-3.1,3.2-4.4,5.1c-1.2,1.9-2.1,4-2.8,6.2c-0.3,1.1-0.6,2.2-0.7,3.3
		c-0.2,1-0.2,2.4-0.2,3.6c0-0.2,0,0,0,0l0,0.1l0,0.1l0,0.2l0,0.4l0.1,0.9c0,0.6,0.1,1.1,0.2,1.7c0.1,1.1,0.5,2.2,0.8,3.4
		c0.7,2.2,1.7,4.3,3,6.1c1.3,1.8,2.8,3.5,4.6,4.9c1.8,1.4,3.6,2.6,5.6,3.4c0.5,0.3,1,0.4,1.5,0.6c0.5,0.2,1,0.4,1.5,0.5
		c0.5,0.1,1,0.2,1.5,0.4c0.5,0.1,1,0.1,1.5,0.2c0.9,0.2,2.1,0.2,3.2,0.2l0.2,0l0.1,0l0.1,0c0,0-0.2,0-0.1,0l0.4,0l0.8-0.1
		c0.5,0,1,0,1.5-0.1c3.9-0.5,7.5-2,10.3-4c0.7-0.5,1.4-1,2-1.6c0.6-0.6,1.2-1.1,1.8-1.7c1.2-1,2.2-2.1,3.2-3.2
		c1.9-2.2,3.2-4.5,4-6.5c0.2-0.5,0.4-1,0.5-1.5c0.1-0.5,0.2-0.9,0.3-1.3c0.1-0.4,0.2-0.8,0.2-1.2c0.1-0.4,0.1-0.7,0.1-1
		C69.9,41.9,69.9,41.2,69.9,41.2z"/>
</g>
<g id="XMLID_3_">
	<path id="XMLID_19_" d="M45.2,60.9c0,0,0.2,1.8,0.6,4.9c0.2,1.6,0.4,3.4,0.6,5.6c0.1,1.1,0.2,2.2,0.3,3.4c0.1,1.2,0,2.5,0,3.8
		c0,10.7,0,24.9,0,39.1s0,28.4,0,39.1c0,0.7,0,1.3,0,2c0,0.6,0,1.3,0,1.9c-0.1,1.2-0.2,2.4-0.3,3.4c-0.2,2.2-0.4,4.1-0.6,5.6
		c-0.3,3.1-0.6,4.9-0.6,4.9s-0.2-1.8-0.6-4.9c-0.2-1.6-0.4-3.4-0.6-5.6c-0.1-1.1-0.2-2.2-0.3-3.4c-0.1-0.6-0.1-1.2,0-1.9
		c0-0.6,0-1.3,0-2c0-10.7,0-24.9,0-39.1s0-28.4,0-39.1c0-1.3-0.1-2.6,0-3.8c0.1-1.2,0.2-2.4,0.3-3.4c0.2-2.2,0.4-4.1,0.6-5.6
		C45,62.7,45.2,60.9,45.2,60.9z"/>
</g>
<g id="XMLID_2_">
	<path id="XMLID_18_" d="M45.2,167.6c0,0-0.2,1.2-0.5,3.2c-0.2,1-0.4,2.2-0.7,3.6c-0.1,0.7-0.3,1.4-0.4,2.2
		c-0.2,0.8-0.6,1.5-0.8,2.3c-2.3,6.5-5.4,15.1-8.5,23.8c-3.1,8.6-6.2,17.3-8.5,23.8c-0.1,0.4-0.3,0.8-0.4,1.2
		c-0.1,0.4-0.2,0.8-0.4,1.1c-0.4,0.7-0.7,1.4-1.1,2c-0.7,1.2-1.3,2.3-1.8,3.2c-1,1.8-1.6,2.8-1.6,2.8s0.2-1.2,0.5-3.2
		c0.2-1,0.4-2.2,0.7-3.6c0.1-0.7,0.3-1.4,0.4-2.2c0.1-0.4,0.2-0.8,0.4-1.1c0.2-0.4,0.3-0.8,0.4-1.2c2.3-6.5,5.4-15.1,8.5-23.8
		s6.2-17.3,8.5-23.8c0.3-0.8,0.5-1.6,0.8-2.3c0.4-0.7,0.7-1.4,1.1-2c0.7-1.3,1.3-2.3,1.8-3.2C44.6,168.6,45.2,167.6,45.2,167.6z"/>
</g>
<g id="XMLID_4_">
	<path id="XMLID_21_" d="M44.4,167.6c0,0,0.7,1,1.8,2.8c0.5,0.9,1.2,1.9,1.9,3.2c0.4,0.6,0.8,1.3,1.2,2c0.4,0.7,0.6,1.5,1,2.3
		c2.7,6.5,6.2,15.1,9.8,23.8c3.6,8.6,7.1,17.3,9.8,23.8c0.2,0.4,0.3,0.8,0.5,1.2c0.2,0.4,0.3,0.8,0.4,1.2c0.2,0.8,0.4,1.5,0.6,2.2
		c0.4,1.4,0.6,2.6,0.9,3.6c0.5,2,0.7,3.2,0.7,3.2s-0.7-1-1.7-2.8c-0.5-0.9-1.2-2-1.9-3.2c-0.4-0.6-0.8-1.3-1.2-2
		c-0.2-0.3-0.4-0.7-0.5-1.1c-0.1-0.4-0.3-0.8-0.5-1.2c-2.7-6.5-6.2-15.1-9.8-23.8c-3.6-8.6-7.1-17.3-9.8-23.8
		c-0.3-0.8-0.7-1.5-1-2.3c-0.2-0.8-0.4-1.5-0.6-2.2c-0.4-1.4-0.6-2.6-0.9-3.6C44.6,168.8,44.4,167.6,44.4,167.6z"/>
</g>
<g id="XMLID_5_">
	<path id="XMLID_15_" d="M42.9,91.6c0,0,1.1-0.3,2.9-0.7c0.9-0.2,2.1-0.5,3.3-0.7c0.6-0.1,1.3-0.3,2.1-0.4c0.7-0.1,1.5,0,2.3-0.1
		c6.4-0.3,15-0.7,23.5-1.1s17.1-0.8,23.5-1.1c0.4,0,0.8,0,1.2-0.1c0.4-0.1,0.8-0.1,1.1,0c0.7,0.1,1.4,0.2,2.1,0.2
		c1.3,0.1,2.5,0.3,3.4,0.4c1.9,0.3,3,0.4,3,0.4s-1.1,0.3-2.9,0.7c-0.9,0.2-2.1,0.5-3.3,0.7c-0.6,0.1-1.3,0.3-2.1,0.4
		c-0.4,0.1-0.7,0.1-1.1,0.1c-0.4,0-0.8,0-1.2,0c-6.4,0.3-15,0.7-23.5,1.1s-17.1,0.8-23.5,1.1c-0.8,0-1.6,0.2-2.3,0.1
		c-0.7-0.1-1.4-0.2-2.1-0.2c-1.3-0.1-2.5-0.3-3.4-0.4C44,91.8,42.9,91.6,42.9,91.6z"/>
</g>
<g id="XMLID_7_">
	<path id="XMLID_28_" d="M42.9,91.6c0,0,0.9,0,2.5,0.2c0.8,0.1,1.7,0.1,2.8,0.3c0.5,0.1,1.1,0.1,1.7,0.2c0.3,0,0.6,0.1,0.9,0.2
		c0.3,0.1,0.6,0.2,0.9,0.3c5.1,1.6,11.8,3.6,18.6,5.7c6.7,2.1,13.5,4.1,18.6,5.7c0.3,0.1,0.6,0.2,0.9,0.3c0.3,0.1,0.6,0.2,0.9,0.3
		c0.5,0.3,1.1,0.6,1.5,0.8c1,0.5,1.8,1,2.5,1.4c1.4,0.8,2.2,1.3,2.2,1.3s-0.9,0-2.5-0.2c-0.8-0.1-1.7-0.1-2.8-0.3
		c-0.5-0.1-1.1-0.1-1.7-0.2c-0.3,0-0.6-0.1-0.9-0.2c-0.3-0.1-0.6-0.2-0.9-0.3c-5.1-1.6-11.8-3.6-18.6-5.7
		c-6.7-2.1-13.5-4.1-18.6-5.7c-0.3-0.1-0.6-0.2-0.9-0.3c-0.3-0.1-0.6-0.1-0.9-0.3c-0.5-0.3-1.1-0.6-1.5-0.8c-1-0.5-1.8-1-2.5-1.4
		C43.7,92.1,42.9,91.6,42.9,91.6z"/>
</g>
<path id="XMLID_6_" d="M105.2,80.5c0,0,0.6,4.6-1.3,6.8c-1.9,2.3-1.9,2.3-1.9,2.3s8.4,2.7,10,0.2c1.6-2.5-2.5-5.7-3.3-5.9
	c-0.8-0.2-1.9-0.3-1.9-0.3L105.2,80.5z"/>
<path id="XMLID_9_" d="M92.7,96.2c0,0-0.4,5.7-2.8,7.6s-2.4,1.9-2.4,1.9s8.1,4.4,10.2,2.2c2.1-2.2-1.8-6.5-2.5-6.9
	c-0.7-0.4-1.5-0.5-1.5-0.5L92.7,96.2z"/>
<g id="XMLID_10_">
	<path id="XMLID_41_" class="st0" d="M96,103.9c0,0,0.1,0,0.2,0c0.1,0,0.3,0,0.5,0c0.4,0,0.7-0.2,0.7-0.2c0,0,0,0.1-0.2,0.2
		c-0.1,0.1-0.3,0.1-0.5,0.2c-0.2,0-0.4,0-0.5,0C96.1,103.9,96,103.9,96,103.9z"/>
</g>
<g id="XMLID_11_">
	<path id="XMLID_39_" class="st0" d="M96.4,104.6c0,0,0.1,0,0.2,0c0.1,0,0.3,0,0.5,0c0.4,0,0.7-0.2,0.7-0.2c0,0,0,0.1-0.2,0.2
		c-0.1,0.1-0.3,0.1-0.5,0.2c-0.2,0-0.4,0-0.5,0C96.5,104.6,96.4,104.6,96.4,104.6z"/>
</g>
<g id="XMLID_12_">
	<path id="XMLID_37_" class="st0" d="M96.7,105.4c0,0,0.1,0,0.2,0c0.1,0,0.3,0,0.5,0c0.4,0,0.7-0.2,0.7-0.2c0,0,0,0.1-0.2,0.2
		c-0.1,0.1-0.3,0.1-0.5,0.2c-0.2,0-0.4,0-0.5,0C96.8,105.4,96.7,105.4,96.7,105.4z"/>
</g>
<g id="XMLID_24_">
	<path id="XMLID_47_" class="st0" d="M110.6,86.3c0,0,0.1,0,0.2-0.1c0.1,0,0.3-0.1,0.5-0.2c0.4-0.1,0.6-0.4,0.6-0.4
		c0,0,0,0.1-0.1,0.2c-0.1,0.1-0.3,0.2-0.5,0.3c-0.2,0.1-0.4,0.1-0.5,0.1C110.7,86.3,110.6,86.3,110.6,86.3z"/>
</g>
<g id="XMLID_23_">
	<path id="XMLID_45_" class="st0" d="M111.1,86.8c0,0,0.1,0,0.2-0.1c0.1,0,0.3-0.1,0.5-0.2c0.4-0.1,0.6-0.4,0.6-0.4
		c0,0,0,0.1-0.1,0.2c-0.1,0.1-0.3,0.2-0.5,0.3c-0.2,0.1-0.4,0.1-0.5,0.1C111.2,86.8,111.1,86.8,111.1,86.8z"/>
</g>
<g id="XMLID_13_">
	<path id="XMLID_43_" class="st0" d="M111.7,87.5c0,0,0.1,0,0.2-0.1c0.1,0,0.3-0.1,0.5-0.2c0.4-0.1,0.6-0.4,0.6-0.4
		c0,0,0,0.1-0.1,0.2c-0.1,0.1-0.3,0.2-0.5,0.3c-0.2,0.1-0.4,0.1-0.5,0.1C111.8,87.5,111.7,87.5,111.7,87.5z"/>
</g>
<text id="XMLID_8_" transform="matrix(1 0 0 1 2.375984e-002 9.9899)" class="st1 st2">YAYY...CONGRATS!!</text>
</svg>
