<?xml version="1.0" encoding="utf-8"?>
<!-- Generator: Adobe Illustrator 19.0.0, SVG Export Plug-In . SVG Version: 6.00 Build 0)  -->
<svg version="1.1" id="svg_1" xmlns="http://www.w3.org/2000/svg" xmlns:xlink="http://www.w3.org/1999/xlink" x="0px" y="0px"
	 viewBox="-203 243.2 204.2 307.8" style="enable-background:new -203 243.2 204.2 307.8;" xml:space="preserve">

<style>
	#svg_1:hover {
	background-color: black;
	fill:white;
	}
</style>
<g id="XMLID_1_">
	<path id="XMLID_30_" d="M-62.4,312.9c0,0,0,0.7-0.1,2c0,0.3,0,0.7-0.1,1.1c-0.1,0.4-0.1,0.8-0.2,1.3c-0.1,0.5-0.1,1-0.2,1.5
		c-0.1,0.5-0.3,1.1-0.4,1.7c-0.7,2.4-1.7,5.2-3.5,8.1s-4.4,5.9-7.9,8.4s-7.8,4.4-12.7,5.1c-0.6,0.1-1.2,0.1-1.9,0.2
		c-0.6,0-1.2,0.2-1.9,0.1c-1.2,0-2.5,0-3.8-0.2c-2.7-0.2-5.3-1-7.8-2c-2.6-1-5-2.5-7.2-4.2c-2.2-1.8-4.2-4-5.9-6.3
		c-1.7-2.4-3-5.1-3.9-7.9c-0.4-1.4-0.8-2.9-1-4.4c-0.1-0.7-0.2-1.5-0.3-2.2l-0.1-2.3c0.1-2.7,0.5-5.9,1.4-8.7
		c0.9-2.8,2.2-5.5,3.9-7.9c1.7-2.4,3.7-4.5,5.9-6.3c2.3-1.7,4.7-3.2,7.3-4.2c2.6-1,5.2-1.7,7.8-2c1.3-0.2,2.6-0.2,3.9-0.2
		c0.2,0,0.3,0,0.5,0h0.5l0.9,0.1c0.6,0.1,1.2,0.1,1.8,0.2c5,0.8,9.3,2.7,12.8,5.1c3.5,2.5,6.1,5.5,7.9,8.4c1.8,2.9,2.9,5.7,3.5,8.1
		c0.1,0.6,0.3,1.2,0.4,1.7c0.1,0.5,0.2,1,0.2,1.5c0.1,0.5,0.1,0.9,0.2,1.3c0.1,0.4,0,0.8,0.1,1.1C-62.5,312.2-62.4,312.9-62.4,312.9
		z M-62.4,312.9c0,0,0-0.7-0.1-2c0-0.3,0-0.7-0.1-1.1s-0.1-0.8-0.2-1.3c-0.1-0.5-0.1-1-0.3-1.5c-0.1-0.5-0.3-1.1-0.4-1.7
		c-0.7-2.3-1.7-5.2-3.7-7.9c-1.9-2.8-4.6-5.6-8.1-7.8c-1.8-1-3.7-2.1-5.8-2.7c-0.5-0.2-1.1-0.3-1.6-0.5c-0.5-0.1-1.1-0.2-1.7-0.4
		c-1.1-0.3-2.2-0.3-3.4-0.5c-0.6-0.1-1.2,0-1.8-0.1h-0.9H-91h-0.4c-1.2,0.1-2.4,0.2-3.6,0.4c-2.4,0.4-4.7,1.3-7,2.3
		c-2.3,1.1-4.3,2.5-6.3,4.2c-1.9,1.7-3.6,3.7-5,5.8c-1.4,2.2-2.4,4.6-3.2,7l-0.5,1.9c-0.2,0.6-0.2,1.2-0.3,1.9
		c-0.2,1.2-0.2,2.7-0.3,4c0-0.2,0,0,0,0v0.1v0.1v0.2v0.5v1c0,0.7,0.1,1.3,0.2,1.9c0.1,1.3,0.5,2.6,0.8,3.8c0.2,0.6,0.4,1.2,0.6,1.8
		c0.1,0.3,0.2,0.6,0.3,0.9l0.7,1c0.3,0.6,0.5,1.2,0.8,1.7l1,1.7c1.4,2.2,3.1,4.1,5,5.8c1.9,1.6,4,3.1,6.3,4.2c2.2,1,4.6,1.9,7,2.3
		c1.1,0.3,2.4,0.3,3.6,0.4c0.5,0.1,1.2,0,1.7,0c0.6,0,1.2,0,1.8-0.1c4.7-0.4,9-1.9,12.5-4.1c3.5-2.2,6.2-5,8.1-7.8
		c2-2.8,3-5.6,3.7-7.9c0.2-0.6,0.3-1.1,0.4-1.7c0.1-0.5,0.2-1,0.3-1.5s0.1-0.9,0.2-1.3c0.1-0.4,0.1-0.8,0.1-1.1
		C-62.5,313.6-62.4,312.9-62.4,312.9z"/>
</g>
<g id="XMLID_2_">
	<path id="XMLID_24_" d="M-90.9,341.4c0,0,0.2,1.7,0.6,4.6c0.2,1.5,0.4,3.2,0.6,5.2c0.1,1,0.2,2.1,0.3,3.2c0.1,1.1,0,2.3,0,3.6
		c0,10,0,23.3,0,36.6s0,26.6,0,36.6c0,0.6,0,1.2,0,1.8c0,0.6,0,1.2,0,1.7c-0.1,1.1-0.2,2.2-0.3,3.2c-0.2,2-0.4,3.8-0.6,5.2
		c-0.3,2.9-0.6,4.6-0.6,4.6s-0.2-1.7-0.6-4.6c-0.2-1.5-0.4-3.2-0.6-5.2c-0.1-1-0.2-2.1-0.3-3.2c-0.1-0.6-0.1-1.2,0-1.7
		c0-0.6,0-1.2,0-1.8c0-10,0-23.3,0-36.6s0-26.6,0-36.6c0-1.2-0.1-2.4,0-3.6c0.1-1.1,0.2-2.2,0.3-3.2c0.2-2,0.4-3.8,0.6-5.2
		C-91.2,343-90.9,341.4-90.9,341.4z"/>
</g>
<g id="XMLID_3_">
	<path id="XMLID_38_" d="M-91.4,444.7c0,0,1,0.4,2.8,1c0.9,0.3,2,0.8,3.2,1.3c0.6,0.3,1.3,0.5,1.9,0.8c0.7,0.3,1.3,0.8,2,1.2
		c5.4,3.3,12.7,7.8,19.9,12.3c7.3,4.5,14.5,8.9,19.9,12.3c0.3,0.2,0.7,0.4,1,0.6s0.7,0.4,0.9,0.6c0.6,0.5,1.1,0.9,1.6,1.4
		c1,0.8,1.9,1.6,2.6,2.2c1.4,1.3,2.2,2,2.2,2s-1-0.4-2.8-1c-0.9-0.3-2-0.8-3.2-1.3c-0.6-0.3-1.3-0.5-1.9-0.8c-0.3-0.1-0.7-0.3-1-0.6
		c-0.3-0.2-0.7-0.4-1-0.6c-5.4-3.3-12.7-7.8-19.9-12.3c-7.3-4.5-14.5-8.9-19.9-12.3c-0.7-0.5-1.4-0.7-1.9-1.2
		c-0.6-0.5-1.1-0.9-1.6-1.4c-1-0.8-1.9-1.6-2.6-2.3C-90.7,445.4-91.4,444.7-91.4,444.7z"/>
</g>
<g id="XMLID_4_">
	<path id="XMLID_40_" d="M-35.1,478.5c0,0-0.4,1.2-1,3.2c-0.3,1-0.8,2.2-1.3,3.6c-0.3,0.7-0.5,1.4-0.8,2.2c-0.3,0.8-0.8,1.4-1.2,2.3
		c-3.4,6.3-7.9,14.6-12.4,23c-4.5,8.4-9,16.7-12.4,23c-0.2,0.4-0.4,0.8-0.6,1.2c-0.2,0.4-0.4,0.8-0.6,1.1c-0.5,0.7-1,1.3-1.4,1.9
		c-0.9,1.2-1.6,2.2-2.3,3c-1.3,1.7-2.1,2.6-2.1,2.6s0.4-1.2,1.1-3.1c0.3-1,0.8-2.2,1.3-3.6c0.3-0.7,0.5-1.4,0.8-2.2
		c0.1-0.4,0.3-0.8,0.6-1.1c0.2-0.4,0.4-0.8,0.6-1.1c3.4-6.3,7.9-14.6,12.4-23c4.5-8.4,9-16.7,12.4-23c0.5-0.8,0.7-1.6,1.2-2.2
		c0.5-0.7,1-1.3,1.4-1.9c0.9-1.2,1.6-2.2,2.3-3C-35.9,479.4-35.1,478.5-35.1,478.5z"/>
</g>
<g id="XMLID_5_">
	<path id="XMLID_42_" d="M-90.9,443.4c0,0-0.4,1.4-1.2,3.7c-0.4,1.2-0.8,2.6-1.4,4.2c-0.3,0.8-0.6,1.7-0.9,2.6
		c-0.3,0.9-0.9,1.8-1.3,2.7c-3.7,7.6-8.6,17.7-13.5,27.8c-4.9,10.1-9.8,20.2-13.5,27.8c-0.2,0.5-0.5,0.9-0.7,1.4s-0.4,0.9-0.7,1.3
		c-0.5,0.8-1,1.6-1.5,2.3c-0.9,1.5-1.8,2.7-2.5,3.7c-1.4,2.1-2.2,3.2-2.2,3.2s0.4-1.4,1.2-3.7c0.4-1.2,0.9-2.6,1.4-4.2
		c0.3-0.8,0.6-1.7,0.9-2.6c0.1-0.5,0.4-0.9,0.6-1.3c0.2-0.4,0.5-0.9,0.7-1.4c3.7-7.6,8.6-17.7,13.5-27.8
		c4.9-10.1,9.8-20.2,13.5-27.8c0.5-0.9,0.8-1.9,1.3-2.7c0.5-0.8,1-1.6,1.5-2.3c0.9-1.5,1.8-2.7,2.5-3.7
		C-91.8,444.6-90.9,443.4-90.9,443.4z"/>
</g>
<g id="XMLID_6_">
	<path id="XMLID_44_" d="M-129.2,524.3c0,0-0.8-0.9-2.1-2.6c-0.7-0.8-1.5-1.9-2.4-3c-0.5-0.6-0.9-1.2-1.4-1.9
		c-0.5-0.7-0.8-1.5-1.3-2.3c-3.6-6.3-8.3-14.8-13.1-23.2c-4.8-8.4-9.5-16.9-13.1-23.2c-0.2-0.4-0.4-0.8-0.7-1.2
		c-0.2-0.4-0.4-0.7-0.6-1.1c-0.3-0.8-0.6-1.5-0.9-2.2c-0.5-1.4-1-2.6-1.4-3.6c-0.7-2-1.1-3.2-1.1-3.2s0.8,0.9,2.1,2.6
		c0.7,0.8,1.5,1.9,2.4,3.1c0.5,0.6,0.9,1.2,1.4,1.9c0.3,0.3,0.5,0.7,0.7,1.1c0.2,0.4,0.4,0.8,0.6,1.2c3.6,6.3,8.3,14.8,13.1,23.2
		c4.7,8.4,9.5,16.9,13.1,23.2c0.4,0.8,1,1.5,1.3,2.3c0.3,0.8,0.6,1.5,0.9,2.2c0.6,1.4,1,2.6,1.4,3.6
		C-129.6,523.2-129.2,524.3-129.2,524.3z"/>
</g>
<g id="XMLID_7_">
	<path id="XMLID_52_" d="M-90.9,380.4c0,0,0.9,0.2,2.3,0.6c0.7,0.2,1.6,0.4,2.6,0.7c0.5,0.1,1,0.3,1.6,0.5c0.3,0.1,0.5,0.2,0.8,0.4
		s0.5,0.3,0.8,0.5c4.5,2.4,10.5,5.5,16.6,8.7c6,3.2,12,6.3,16.6,8.7c0.3,0.1,0.6,0.3,0.8,0.4c0.3,0.1,0.5,0.3,0.8,0.5
		c0.5,0.4,0.9,0.7,1.3,1.1c0.8,0.7,1.5,1.3,2.1,1.8c1.2,1,1.8,1.6,1.8,1.6s-0.9-0.2-2.3-0.6c-0.7-0.2-1.6-0.4-2.6-0.7
		c-0.5-0.1-1-0.3-1.6-0.5c-0.3-0.1-0.6-0.2-0.8-0.4c-0.3-0.2-0.5-0.3-0.8-0.4c-4.5-2.4-10.5-5.5-16.6-8.7c-6-3.2-12-6.3-16.6-8.7
		c-0.3-0.1-0.6-0.3-0.8-0.4c-0.3-0.1-0.6-0.2-0.8-0.4c-0.5-0.4-0.9-0.7-1.3-1.1c-0.8-0.7-1.5-1.3-2.1-1.8
		C-90.3,381-90.9,380.4-90.9,380.4z"/>
</g>
<g id="XMLID_8_">
	<path id="XMLID_50_" d="M-42.8,405.7c0,0,0.1-0.7,0.5-1.8c0.2-0.5,0.3-1.2,0.6-2c0.1-0.4,0.3-0.8,0.4-1.2c0.1-0.2,0.2-0.4,0.3-0.6
		c0.1-0.2,0.3-0.4,0.4-0.6c2.1-3.1,4.8-7.3,7.6-11.5s5.5-8.3,7.6-11.5c0.1-0.2,0.3-0.4,0.4-0.6c0.1-0.2,0.2-0.4,0.4-0.5
		c0.3-0.3,0.6-0.6,0.9-0.8c0.6-0.5,1.1-1,1.6-1.3c0.9-0.7,1.4-1.1,1.4-1.1s-0.2,0.6-0.5,1.7c-0.2,0.5-0.4,1.2-0.6,2
		c-0.1,0.4-0.3,0.8-0.4,1.2c-0.1,0.2-0.2,0.4-0.3,0.6c-0.1,0.2-0.3,0.4-0.4,0.6c-2.1,3.1-4.8,7.3-7.6,11.5s-5.5,8.3-7.6,11.5
		c-0.1,0.2-0.3,0.4-0.4,0.6c-0.1,0.2-0.2,0.4-0.4,0.5c-0.3,0.3-0.6,0.6-0.9,0.8c-0.6,0.5-1.1,1-1.6,1.3
		C-42.2,405.3-42.8,405.7-42.8,405.7z"/>
</g>
<g id="XMLID_9_">
	<path id="XMLID_46_" d="M-90.9,380.4c0,0-0.6,0.5-1.6,1.3c-0.5,0.4-1.1,0.9-1.9,1.4c-0.4,0.3-0.8,0.5-1.2,0.8
		c-0.2,0.1-0.4,0.2-0.7,0.3c-0.2,0.1-0.5,0.2-0.7,0.3c-4,1.6-9.2,3.7-14.5,5.8s-10.6,4.2-14.5,5.8c-0.2,0.1-0.5,0.2-0.7,0.3
		s-0.5,0.2-0.7,0.2c-0.5,0.1-1,0.1-1.4,0.2c-0.9,0.1-1.7,0.2-2.3,0.3c-1.3,0.1-2,0.2-2,0.2s0.6-0.5,1.6-1.2c0.5-0.4,1.1-0.9,1.9-1.4
		c0.4-0.3,0.8-0.5,1.2-0.8c0.2-0.2,0.4-0.3,0.7-0.3c0.2-0.1,0.5-0.2,0.7-0.3c4-1.6,9.2-3.7,14.5-5.8c5.3-2.1,10.6-4.2,14.5-5.8
		c0.2-0.1,0.5-0.2,0.7-0.3c0.2-0.1,0.5-0.2,0.7-0.3c0.5-0.1,1-0.1,1.4-0.2c0.9-0.1,1.7-0.2,2.3-0.3
		C-91.7,380.4-90.9,380.4-90.9,380.4z"/>
</g>
<g id="XMLID_10_">
	<path id="XMLID_48_" d="M-131.4,396.1c0,0,0.1,0.6,0.2,1.5c0,0.5,0.1,1.1,0.1,1.8c0,0.3,0,0.7,0.1,1.1c0,0.2,0,0.4-0.1,0.5
		c-0.1,0.2-0.1,0.4-0.2,0.6c-0.8,3.1-1.9,7.1-3,11.2s-2.2,8.1-3,11.2c0,0.2-0.1,0.4-0.1,0.6c0,0.2-0.1,0.4-0.2,0.5
		c-0.2,0.3-0.4,0.6-0.6,0.9c-0.4,0.6-0.7,1.1-1,1.5c-0.6,0.8-0.9,1.3-0.9,1.3s-0.1-0.6-0.2-1.5c0-0.5-0.1-1.1-0.1-1.8
		c0-0.3,0-0.7-0.1-1.1c0-0.2,0-0.4,0.1-0.5c0.1-0.2,0.1-0.4,0.2-0.6c0.8-3.1,1.9-7.1,3-11.2s2.2-8.1,3-11.2c0-0.2,0.1-0.4,0.1-0.6
		c0-0.2,0.1-0.4,0.2-0.5c0.2-0.3,0.4-0.6,0.6-0.9c0.4-0.6,0.7-1.1,1-1.5C-131.8,396.5-131.4,396.1-131.4,396.1z"/>
</g>
<g id="XMLID_11_">
	<g id="XMLID_22_">
		<path id="XMLID_125_" d="M-159.3,262.5c-0.2-0.1-0.5-0.2-0.8-0.4c-0.3-0.1-0.6-0.3-1-0.4c-0.3-0.1-0.7-0.3-1-0.4
			c-0.3-0.1-0.7-0.2-0.9-0.3c-0.5-0.1-0.9-0.2-1.2-0.1c-0.3,0.1-0.6,0.2-0.8,0.5c-0.2,0.3-0.4,0.7-0.5,1.2s-0.2,1.2-0.2,2.1
			c0,1,0.1,1.8,0.2,2.4s0.2,1.1,0.4,1.5c0.2,0.4,0.4,0.7,0.7,0.9c0.3,0.2,0.6,0.3,0.9,0.5c0.2,0.1,0.3,0.1,0.5,0.1
			c0.2,0,0.4,0.1,0.6,0.1c0-1.2,0-1.8,0-3c-0.5-0.2-0.8-0.2-1.3-0.4c0-1,0-1.5,0-2.5c1.9,0.6,2.9,0.9,4.8,1.4c0,2.9,0,4.3,0,7.2
			c-0.3,0-0.6,0.1-0.9,0.1s-0.7,0-1.1,0c-0.4,0-0.8-0.1-1.2-0.1c-0.4-0.1-0.8-0.2-1.3-0.3c-0.9-0.3-1.7-0.7-2.5-1.1
			c-0.7-0.5-1.4-1.1-1.9-1.8s-0.9-1.6-1.2-2.6s-0.4-2.3-0.4-3.7c0-1.3,0.2-2.4,0.5-3.2c0.3-0.8,0.7-1.3,1.3-1.7
			c0.6-0.3,1.2-0.5,2-0.5c0.8,0,1.6,0.2,2.6,0.5c0.4,0.1,0.7,0.2,1.1,0.4c0.4,0.1,0.8,0.3,1.1,0.4c0.4,0.1,0.7,0.3,1,0.4
			s0.6,0.3,0.8,0.4C-159.2,261-159.2,261.5-159.3,262.5z"/>
		<path id="XMLID_123_" d="M-148.9,261.8c0,1,0,1.5,0,2.4c-1.7-0.2-2.6-0.4-4.3-0.7c0,1.2,0,1.9,0,3.1c1.6,0.3,2.4,0.4,4,0.6
			c0,1,0,1.5,0,2.4c-1.6-0.2-2.4-0.3-4-0.6c0,0.7,0,1.1,0,1.9c0,0.6,0.1,1,0.3,1.2c0.2,0.2,0.5,0.3,0.8,0.4c1.4,0.2,2.1,0.3,3.4,0.5
			c0,1,0,1.5,0,2.4c-1.4-0.2-2.1-0.3-3.6-0.5c-0.7-0.1-1.3-0.3-1.9-0.5c-0.6-0.2-1-0.5-1.4-0.9c-0.4-0.4-0.7-0.8-0.9-1.4
			c-0.2-0.5-0.3-1.2-0.3-1.9c0-3.9,0-5.9,0-9.8C-153.6,261.1-152,261.4-148.9,261.8z"/>
		<path id="XMLID_121_" d="M-137.6,262.7c0,1,0,1.5,0,2.4c-1.3,0-1.9-0.1-3.2-0.1c0,4.5,0,6.7,0,11.2c-1.4-0.1-2.1-0.1-3.5-0.2
			c0-4.5,0-6.7,0-11.2c-1.3-0.1-1.9-0.2-3.2-0.3c0-1,0-1.5,0-2.4C-143.6,262.4-141.6,262.6-137.6,262.7z"/>
		<path id="XMLID_118_" d="M-121.1,268.8c0,2.4-0.4,4.3-1.3,5.5c-0.9,1.2-2.2,1.9-4,2c-1.8,0.1-3.2-0.4-4-1.5
			c-0.9-1.1-1.3-2.9-1.3-5.3c0-2.5,0.4-4.3,1.3-5.4c0.9-1.2,2.2-1.8,4.1-1.9c1.8-0.1,3.2,0.3,4.1,1.4
			C-121.6,264.6-121.1,266.4-121.1,268.8z M-124.8,269.1c0-0.9,0-1.6-0.1-2.2c-0.1-0.6-0.2-1.1-0.3-1.4c-0.1-0.4-0.3-0.6-0.5-0.7
			s-0.5-0.2-0.8-0.2s-0.6,0.1-0.8,0.3c-0.2,0.2-0.4,0.4-0.5,0.8s-0.3,0.9-0.3,1.4c-0.1,0.6-0.1,1.3-0.1,2.2s0,1.6,0.1,2.2
			c0.1,0.6,0.2,1.1,0.3,1.4c0.1,0.4,0.3,0.6,0.5,0.7s0.5,0.2,0.8,0.2s0.5-0.1,0.8-0.3c0.2-0.2,0.4-0.4,0.5-0.8s0.2-0.9,0.3-1.5
			C-124.8,270.7-124.8,270-124.8,269.1z"/>
		<path id="XMLID_116_" d="M-115.8,261.4c0,3.7,0,5.6,0,9.4c0,0.8,0.1,1.3,0.4,1.6c0.3,0.3,0.6,0.4,1.1,0.3c0.3,0,0.6-0.1,0.8-0.2
			c0.2-0.1,0.4-0.1,0.5-0.2c0-4.5,0-6.8,0-11.3c1.4-0.2,2.1-0.3,3.5-0.5c0,5.2,0,7.8,0,13c-0.3,0.1-0.6,0.3-1,0.5
			c-0.4,0.2-0.8,0.3-1.2,0.5c-0.4,0.2-0.9,0.3-1.3,0.4c-0.5,0.1-1,0.2-1.5,0.3c-0.9,0.1-1.7,0.1-2.3,0c-0.6-0.1-1.1-0.4-1.5-0.7
			c-0.4-0.4-0.7-0.8-0.8-1.4c-0.2-0.6-0.3-1.2-0.3-2c0-3.7,0-5.5,0-9.1C-117.9,261.7-117.2,261.6-115.8,261.4z"/>
		<path id="XMLID_114_" d="M-97.8,258.5c0,1,0,1.5,0,2.4c-1.3,0.2-1.9,0.4-3.2,0.6c0,4.5,0,6.7,0,11.2c-1.4,0.3-2.1,0.4-3.5,0.6
			c0-4.5,0-6.7,0-11.2c-1.3,0.2-1.9,0.3-3.2,0.5c0-1,0-1.5,0-2.4C-103.8,259.6-101.8,259.3-97.8,258.5z"/>
		<path id="XMLID_112_" d="M-87.3,256.5c0,1,0,1.5,0,2.4c-1.3,0.3-1.9,0.4-3.2,0.6c0,4.5,0,6.7,0,11.2c-1.4,0.3-2.1,0.4-3.5,0.7
			c0-4.5,0-6.7,0-11.2c-1.3,0.2-1.9,0.4-3.2,0.6c0-1,0-1.5,0-2.4C-93.3,257.7-91.3,257.3-87.3,256.5z"/>
		<path id="XMLID_109_" d="M-83,269.3c-1.4,0.3-2.1,0.4-3.5,0.7c0-3.6,0-5.3,0-8.9c0-0.8,0.1-1.5,0.2-2.1c0.2-0.7,0.4-1.2,0.8-1.7
			s0.9-0.9,1.5-1.3c0.6-0.4,1.4-0.6,2.3-0.8c0.9-0.2,1.7-0.2,2.3-0.1c0.6,0.1,1.1,0.4,1.5,0.7c0.4,0.4,0.7,0.8,0.8,1.4
			c0.2,0.6,0.2,1.3,0.2,2c0,3.6,0,5.3,0,8.9c-1.4,0.3-2.1,0.4-3.6,0.7c0-1.8,0-2.7,0-4.4c-1.1,0.2-1.6,0.3-2.7,0.5
			C-83,266.7-83,267.6-83,269.3z M-80.4,261.8c0-0.8,0-1.3,0-2.1s-0.1-1.3-0.3-1.7c-0.2-0.4-0.5-0.5-1.1-0.4
			c-0.5,0.1-0.9,0.4-1.1,0.8c-0.2,0.4-0.3,1-0.3,1.8s0,1.3,0,2.1C-82,262.1-81.4,262-80.4,261.8z"/>
		<path id="XMLID_107_" d="M-66.1,252.7c0,2.2,0,3.2,0,5.4c1.3-0.2,1.9-0.3,3.2-0.5c0-2.2,0-3.2,0-5.4c1.4-0.2,2.1-0.3,3.5-0.5
			c0,5.5,0,8.2,0,13.7c-1.4,0.2-2.1,0.3-3.5,0.5c0-2.3,0-3.4,0-5.7c-1.3,0.2-1.9,0.3-3.2,0.5c0,2.3,0,3.4,0,5.7
			c-1.4,0.2-2.1,0.3-3.5,0.6c0-5.5,0-8.2,0-13.7C-68.3,253-67.6,252.9-66.1,252.7z"/>
		<path id="XMLID_105_" d="M-49,250.7c0,1,0,1.5,0,2.4c-1.7,0.1-2.6,0.2-4.3,0.3c0,1.2,0,1.9,0,3.1c1.6-0.1,2.4-0.2,4-0.3
			c0,1,0,1.5,0,2.4c-1.6,0.1-2.4,0.2-4,0.3c0,0.7,0,1.1,0,1.9c0,0.6,0.1,0.9,0.3,1.1c0.2,0.2,0.5,0.2,0.8,0.2
			c1.4-0.1,2.1-0.2,3.4-0.3c0,1,0,1.5,0,2.4c-1.4,0.1-2.1,0.1-3.6,0.3c-0.7,0.1-1.3,0.1-1.9,0c-0.6-0.1-1-0.2-1.4-0.5
			c-0.4-0.3-0.7-0.6-0.9-1.1s-0.3-1.1-0.3-1.8c0-3.9,0-5.9,0-9.8C-53.7,251.1-52.1,250.9-49,250.7z"/>
		<path id="XMLID_102_" d="M-42.5,250.4c0.8,0,1.5,0.1,2.1,0.2c0.6,0.1,1.1,0.4,1.5,0.7c0.4,0.4,0.7,0.8,0.9,1.4s0.3,1.3,0.3,2.1
			c0,0.5-0.1,0.9-0.2,1.2c-0.1,0.3-0.3,0.6-0.5,0.9c-0.2,0.3-0.4,0.5-0.6,0.7c-0.2,0.2-0.5,0.3-0.8,0.5c0.5,0.2,1,0.5,1.3,1
			c0.3,0.4,0.6,1,0.7,1.7c0.2,1.3,0.4,2,0.6,3.3c-1.5,0-2.2,0-3.6,0c-0.2-1.1-0.3-1.7-0.4-2.8c-0.1-0.7-0.3-1.2-0.5-1.5
			c-0.2-0.3-0.6-0.4-1-0.4c0,0-0.1,0-0.2,0c-0.1,0-0.2,0-0.3,0c0,1.9,0,2.8,0,4.7c-1.4,0-2.1,0.1-3.5,0.1c0-5.5,0-8.2,0-13.7
			C-45,250.5-44.2,250.5-42.5,250.4z M-43.1,256.9c0.1,0,0.2,0,0.3,0s0.2,0,0.3,0c0.5,0,0.8-0.2,1-0.5c0.2-0.3,0.3-0.8,0.3-1.6
			c0-0.4,0-0.7-0.1-1c-0.1-0.3-0.1-0.5-0.2-0.6c-0.1-0.1-0.2-0.2-0.4-0.3c-0.2-0.1-0.4-0.1-0.6-0.1c-0.2,0-0.4,0-0.6,0
			C-43.1,254.5-43.1,255.3-43.1,256.9z"/>
		<path id="XMLID_100_" d="M-27.7,251.2c0,1,0,1.5,0,2.4c-1.7-0.2-2.6-0.3-4.3-0.4c0,1.2,0,1.9,0,3.1c1.6,0.1,2.4,0.2,4,0.4
			c0,1,0,1.5,0,2.4c-1.6-0.2-2.4-0.3-4-0.4c0,0.7,0,1.1,0,1.9c0,0.6,0.1,1,0.3,1.2c0.2,0.2,0.5,0.3,0.8,0.3c1.4,0.1,2.1,0.2,3.4,0.4
			c0,1,0,1.5,0,2.4c-1.4-0.2-2.1-0.2-3.6-0.4c-0.7-0.1-1.3-0.2-1.9-0.3c-0.6-0.2-1-0.4-1.4-0.7c-0.4-0.3-0.7-0.7-0.9-1.2
			s-0.3-1.1-0.3-1.9c0-3.9,0-5.9,0-9.8C-32.4,250.7-30.8,250.8-27.7,251.2z"/>
		<path id="XMLID_97_" d="M-21,264.5c0-0.5,0.2-0.9,0.5-1.1c0.3-0.2,0.8-0.2,1.4-0.1c0.6,0.1,1,0.4,1.4,0.7c0.3,0.4,0.5,0.8,0.5,1.3
			s-0.2,0.9-0.5,1.1c-0.3,0.2-0.8,0.2-1.4,0.1c-0.6-0.1-1-0.4-1.4-0.7C-20.8,265.5-21,265-21,264.5z M-17.2,253
			c-0.2,3.8-0.3,5.7-0.5,9.6c-1.1-0.3-1.7-0.4-2.8-0.6c-0.2-3.9-0.3-5.9-0.5-9.8C-19.4,252.5-18.7,252.7-17.2,253z"/>
		<path id="XMLID_94_" d="M-15.3,265.8c0-0.5,0.2-0.9,0.5-1.1s0.8-0.2,1.4,0c0.6,0.2,1,0.4,1.4,0.8c0.3,0.4,0.5,0.8,0.5,1.3
			s-0.2,0.9-0.5,1c-0.3,0.2-0.8,0.2-1.4,0c-0.6-0.2-1-0.4-1.4-0.8C-15.1,266.8-15.3,266.3-15.3,265.8z M-11.5,254.6
			c-0.2,3.8-0.3,5.7-0.5,9.5c-1.1-0.3-1.7-0.5-2.8-0.8c-0.2-3.9-0.3-5.9-0.5-9.8C-13.7,253.9-13,254.1-11.5,254.6z"/>
		<path id="XMLID_91_" d="M-9.6,267.5c0-0.5,0.2-0.9,0.5-1c0.3-0.2,0.8-0.1,1.4,0.1c0.6,0.2,1,0.5,1.4,0.9c0.3,0.4,0.5,0.9,0.5,1.4
			s-0.2,0.8-0.5,1c-0.3,0.1-0.8,0.1-1.4-0.1c-0.6-0.2-1-0.5-1.4-0.9C-9.4,268.5-9.6,268-9.6,267.5z M-5.8,256.6
			c-0.2,3.8-0.3,5.7-0.5,9.5c-1.1-0.4-1.7-0.6-2.8-1c-0.2-3.9-0.3-5.9-0.5-9.8C-8,255.7-7.3,256-5.8,256.6z"/>
	</g>
</g>
<g id="XMLID_16_">
	<path id="XMLID_34_" d="M-167.2,456.8c0,0-0.1,0.2-0.2,0.4c-0.1,0.1-0.1,0.3-0.2,0.4c0,0.1-0.1,0.2-0.2,0.3
		c-0.1,0.1-0.2,0.1-0.2,0.2c-0.7,0.5-1.6,1.3-2.5,2c-0.9,0.7-1.8,1.4-2.5,2c-0.1,0.1-0.1,0.2-0.2,0.2c-0.1,0-0.2,0.1-0.3,0.1
		c-0.2,0.1-0.3,0.1-0.5,0.1c-0.3,0.1-0.4,0.1-0.4,0.1s0.1-0.1,0.2-0.4c0.1-0.1,0.1-0.3,0.2-0.4c0-0.1,0.1-0.2,0.2-0.3
		c0-0.1,0.2-0.1,0.2-0.2c0.7-0.5,1.6-1.3,2.5-2c0.9-0.7,1.8-1.4,2.5-2c0.1-0.1,0.1-0.2,0.2-0.2c0.1,0,0.2-0.1,0.3-0.1
		c0.2-0.1,0.3-0.1,0.5-0.1C-167.4,456.8-167.2,456.8-167.2,456.8z"/>
</g>
<g id="XMLID_17_">
	<path id="XMLID_36_" d="M-71.3,545.4c0,0,0.2,0,0.5,0c0.1,0,0.3,0,0.5,0c0.1,0,0.2,0,0.3,0s0.2,0.1,0.3,0.1
		c0.8,0.3,1.9,0.8,3.1,1.2c1.1,0.4,2.2,0.9,3.1,1.2c0.1,0.1,0.2,0,0.3,0.1s0.2,0.1,0.2,0.2c0.1,0.1,0.3,0.3,0.4,0.4
		c0.2,0.2,0.3,0.3,0.3,0.3s-0.2,0-0.5,0c-0.1,0-0.3,0-0.5,0c-0.1,0-0.2,0-0.3,0s-0.2-0.1-0.3-0.1c-0.8-0.3-1.9-0.8-3.1-1.2
		c-1.1-0.4-2.2-0.9-3.1-1.2c-0.1-0.1-0.2,0-0.3-0.1c-0.1-0.1-0.2-0.1-0.2-0.2c-0.1-0.1-0.3-0.3-0.4-0.4
		C-71.2,545.5-71.3,545.4-71.3,545.4z"/>
</g>
<g id="XMLID_18_">
	<path id="XMLID_54_" d="M-80.9,558c0,0-2.2-0.3-5.8-1.1c-3.8-0.8-9.1-1.9-15.5-3.5c-6.4-1.6-13.7-3.7-21.5-6.3
		c-7.8-2.6-15.9-5.7-23.8-9.3c-7.9-3.6-15.6-7.8-22.3-12.5c-6.7-4.6-12.3-9.9-16.2-15.1c-1.9-2.6-3.5-5.2-4.5-7.6
		c-1.1-2.4-1.7-4.6-2.2-6.4c-0.1-0.4-0.2-0.9-0.3-1.3s-0.1-0.8-0.2-1.2c-0.1-0.7-0.2-1.4-0.3-1.8c-0.1-1-0.2-1.5-0.2-1.5
		s0.1,0.5,0.2,1.5c0,0.5,0.2,1.1,0.3,1.8c0.1,0.3,0.1,0.8,0.2,1.1c0.1,0.4,0.2,0.9,0.3,1.3c0.4,1.8,1.2,4,2.4,6.4
		c1.1,2.3,2.7,4.9,4.6,7.5c1.9,2.6,4.4,5.2,7.1,7.6c2.7,2.5,5.8,4.9,9.2,7.2c6.6,4.6,14.3,8.8,22.3,12.4c7.9,3.6,16.1,6.7,23.7,9.4
		c7.7,2.6,15,4.8,21.3,6.5c6.3,1.7,11.6,3,15.3,3.9C-83,557.6-80.9,558-80.9,558z"/>
</g>
<g id="XMLID_25_">
	<path id="XMLID_56_" d="M-65.2,552.2c0,0-2.5-0.5-6.7-1.4c-4.3-0.9-10.4-2.3-17.6-4.3s-15.6-4.5-24.5-7.6
		c-8.8-3.1-18.2-6.8-27.2-11.2c-9-4.4-17.8-9.3-25.3-14.9c-7.6-5.5-14-11.7-18.3-17.9c-2.2-3.1-3.9-6.1-5.1-8.9
		c-1.2-2.8-2-5.4-2.4-7.5c-0.1-0.5-0.2-1-0.3-1.5c-0.1-0.5-0.1-0.9-0.2-1.4c-0.1-0.8-0.2-1.6-0.2-2.1c-0.1-1.2-0.1-1.8-0.1-1.8
		s0.1,0.6,0.2,1.8c0,0.6,0.1,1.3,0.3,2.1c0.1,0.4,0.1,0.9,0.2,1.3c0.1,0.5,0.2,1,0.4,1.5c0.5,2.1,1.3,4.7,2.6,7.4
		c1.3,2.8,3,5.7,5.2,8.7s4.9,6,8,9c3.1,2.9,6.6,5.8,10.4,8.5c7.6,5.5,16.3,10.4,25.3,14.7c9,4.4,18.2,8.1,27,11.3
		c8.8,3.2,17.1,5.8,24.3,7.9c7.2,2.1,13.2,3.7,17.5,4.7C-67.7,551.7-65.2,552.2-65.2,552.2z"/>
</g>
</svg>
