<?xml version="1.0" encoding="utf-8"?>
<!-- Generator: Adobe Illustrator 19.0.0, SVG Export Plug-In . SVG Version: 6.00 Build 0)  -->
<svg version="1.1" id="svg_2" xmlns="http://www.w3.org/2000/svg" xmlns:xlink="http://www.w3.org/1999/xlink" x="0px" y="0px"
	 viewBox="0 0 162.7 152.1" style="enable-background:new 0 0 162.7 152.1;" xml:space="preserve">
<style type="text/css">

	#svg_2:hover {
	background-color: black;
	fill:white;
	}
	.st0{fill:#FFFFFF;}
	.st1{font-family:'3ds-CondensedBold';}
	.st2{font-size:17.7079px;}
</style>
<g id="XMLID_1_">
	<circle id="XMLID_33_" class="st0" cx="136.5" cy="27.5" r="25.5"/>
	<path id="XMLID_30_" d="M160.9,34.9c0,0-0.2,0.6-0.6,1.7c-0.2,0.6-0.4,1.2-0.8,2c-0.2,0.4-0.3,0.8-0.5,1.3
		c-0.2,0.4-0.4,0.9-0.7,1.4c-1,2-2.3,4.5-4.6,6.8c-0.5,0.6-1.2,1.1-1.8,1.7c-0.6,0.6-1.4,1.1-2.1,1.6c-0.8,0.5-1.6,0.9-2.5,1.3
		c-0.9,0.3-1.8,0.7-2.8,1c-3.9,1.2-8.4,1.5-12.9,0.7c-0.6-0.1-1.1-0.3-1.7-0.4l-0.9-0.2l-0.4-0.1c0.1,0-0.1,0-0.1,0l0,0l-0.1,0
		l-0.2-0.1c-1-0.4-2.1-0.7-3.2-1.3c-2.3-1-4.3-2.4-6.3-4.1c-1.9-1.6-3.6-3.6-5.1-5.8c-1.4-2.2-2.5-4.6-3.3-7.1
		c-0.8-2.6-1.1-5.2-1.2-7.9c0-2.7,0.5-5.4,1.2-8l0.7-1.9c0.2-0.6,0.5-1.2,0.8-1.8c0.6-1.3,1.3-2.4,2-3.6C115.2,10,117,8,119,6.3
		c2.1-1.7,4.3-3.1,6.7-4.1c2.4-1,4.9-1.7,7.4-2c2.5-0.3,5-0.3,7.4,0.1c1.2,0.1,2.4,0.5,3.5,0.8l0.2,0.1l0.1,0l0.1,0l0.1,0l0.4,0.1
		l0.8,0.3c0.5,0.2,1,0.3,1.5,0.6c1.1,0.5,2.2,1,3.1,1.6c0.5,0.3,1,0.6,1.4,0.9c0.4,0.3,0.9,0.7,1.3,1c1.8,1.3,3.2,2.8,4.5,4.4
		c1.2,1.6,2.5,3.1,3.1,4.9c0.3,0.9,0.7,1.7,0.9,2.5c0.2,0.9,0.4,1.7,0.5,2.5c0.5,3.2,0.3,6,0,8.2c-0.1,0.6-0.2,1.1-0.2,1.6
		c-0.1,0.5-0.2,0.9-0.3,1.4c-0.2,0.8-0.3,1.6-0.5,2.1C161.1,34.3,160.9,34.9,160.9,34.9z M160.9,34.9c0,0,0.1-0.6,0.4-1.8
		c0.1-0.3,0.1-0.6,0.2-1c0-0.4,0.1-0.8,0.1-1.2c0-0.4,0.1-0.9,0.1-1.4c0-0.5-0.1-1-0.1-1.5c-0.2-2.2-0.7-4.8-2-7.4
		c-0.6-1.3-1.3-2.7-2.2-4c-0.4-0.7-0.9-1.3-1.3-2.1c-0.4-0.7-1-1.4-1.5-2.1c-1.1-1.3-2.4-2.6-3.9-3.7c-0.4-0.3-0.7-0.6-1.1-0.8
		c-0.4-0.2-0.8-0.5-1.2-0.7c-0.8-0.6-1.7-0.9-2.5-1.3c-0.4-0.2-1-0.4-1.5-0.6l-0.8-0.3L143.3,5c-0.1,0,0.1,0,0,0l0,0l-0.1,0l-0.2,0
		c-1-0.2-2-0.5-3-0.6c-2.1-0.4-4.2-0.3-6.3-0.1c-2.2,0.2-4.3,0.9-6.3,1.7c-2,0.9-4,2.1-5.8,3.5c-1.8,1.5-3.3,3.2-4.6,5.1
		c-0.6,1-1.2,2-1.7,3c-0.2,0.5-0.5,1-0.7,1.6l-0.6,1.7c-0.6,2.2-1,4.5-1,6.8c0,2.3,0.3,4.6,1,6.8c0.7,2.2,1.6,4.2,2.8,6.1
		c1.3,1.8,2.7,3.5,4.3,4.9c0.4,0.4,0.8,0.7,1.3,1c0.4,0.3,0.8,0.7,1.3,0.9c0.5,0.3,0.9,0.6,1.4,0.8c0.4,0.3,0.9,0.4,1.4,0.7
		c0.8,0.5,2,0.8,3,1.2l0.2,0.1l0.1,0l0,0c0,0-0.2-0.1,0,0l0.4,0.1l0.7,0.2c0.5,0.1,1,0.3,1.5,0.3c3.9,0.7,7.7,0.4,11-0.6
		c0.8-0.3,1.6-0.6,2.4-0.9c0.7-0.4,1.5-0.7,2.2-1c1.5-0.6,2.8-1.4,4-2.1c2.5-1.5,4.4-3.3,5.8-5c0.3-0.4,0.6-0.8,0.9-1.2
		c0.3-0.4,0.5-0.8,0.7-1.2c0.2-0.4,0.4-0.7,0.6-1c0.2-0.3,0.3-0.6,0.4-0.9C160.7,35.5,160.9,34.9,160.9,34.9z"/>
</g>
<g id="XMLID_2_">
	<path id="XMLID_16_" d="M111,27.5c0,0-1.7,0.2-4.8,0.6c-1.5,0.2-3.4,0.4-5.5,0.6c-1.1,0.1-2.2,0.2-3.4,0.3c-1.2,0.1-2.4,0-3.7,0
		c-10.4,0-24.3,0-38.2,0s-27.8,0-38.2,0c-0.7,0-1.3,0-1.9,0c-0.6,0-1.2,0-1.8,0c-1.2-0.1-2.3-0.2-3.4-0.3c-2.1-0.2-4-0.4-5.5-0.6
		c-3-0.3-4.8-0.6-4.8-0.6s1.7-0.2,4.8-0.6c1.5-0.2,3.4-0.4,5.5-0.6c1.1-0.1,2.2-0.2,3.4-0.3c0.6-0.1,1.2-0.1,1.8,0
		c0.6,0,1.3,0,1.9,0c10.4,0,24.3,0,38.2,0s27.8,0,38.2,0c1.3,0,2.5-0.1,3.7,0c1.2,0.1,2.3,0.2,3.4,0.3c2.1,0.2,4,0.4,5.5,0.6
		C109.3,27.2,111,27.5,111,27.5z"/>
</g>
<g id="XMLID_3_">
	<path id="XMLID_18_" d="M6.9,26.6c0,0,0.2,2,0.6,5.4c0.2,1.7,0.4,3.8,0.6,6.2c0.1,1.2,0.2,2.5,0.3,3.8c0.1,1.3,0,2.7,0,4.2
		c0,11.8,0,27.5,0,43.1s0,31.4,0,43.1c0,0.7,0,1.5,0,2.2c0,0.7,0,1.4,0,2.1c-0.1,1.3-0.2,2.6-0.3,3.8c-0.2,2.4-0.4,4.5-0.6,6.2
		c-0.3,3.4-0.6,5.4-0.6,5.4s-0.2-2-0.6-5.4c-0.2-1.7-0.4-3.8-0.6-6.2c-0.1-1.2-0.2-2.5-0.3-3.8c-0.1-0.7-0.1-1.4,0-2.1
		c0-0.7,0-1.4,0-2.2c0-11.8,0-27.5,0-43.1s0-31.4,0-43.1c0-1.5-0.1-2.9,0-4.2c0.1-1.3,0.2-2.6,0.3-3.8c0.2-2.4,0.4-4.5,0.6-6.2
		C6.6,28.6,6.9,26.6,6.9,26.6z"/>
</g>
<g id="XMLID_4_">
	<path id="XMLID_25_" d="M76.9,26.6c0,0-1,1.1-2.7,3c-0.9,0.9-1.9,2.1-3.2,3.4c-0.6,0.6-1.3,1.3-2,2.1c-0.7,0.7-1.6,1.3-2.4,2
		c-6.7,5.6-15.7,13-24.7,20.4s-18,14.8-24.7,20.4c-0.4,0.3-0.8,0.7-1.2,1c-0.4,0.4-0.8,0.7-1.2,0.9c-0.8,0.5-1.6,1.1-2.4,1.5
		c-1.5,1-2.8,1.8-3.9,2.5C6.3,85.2,5,86,5,86s1-1.1,2.7-3c0.9-0.9,1.9-2.1,3.2-3.4c0.6-0.6,1.3-1.3,2-2.1c0.3-0.4,0.7-0.7,1.2-1
		c0.4-0.3,0.8-0.7,1.2-1C22,70,31,62.6,40,55.1s18-14.8,24.7-20.4c0.9-0.7,1.6-1.4,2.4-2c0.8-0.5,1.6-1.1,2.4-1.5
		c1.5-1,2.8-1.8,3.9-2.5C75.6,27.4,76.9,26.6,76.9,26.6z"/>
</g>
<path id="XMLID_6_" d="M159.5,36.5c0,0-2.3,7.8-1.5,10.9c0.6,2.4,2.9,1.7,3.9,1.3c0.3-0.1,0.6-0.4,0.6-0.7
	C162.9,46.5,163.2,41.3,159.5,36.5z"/>
<path id="XMLID_7_" d="M159.3,52.4c0,0-1.3,3.7-0.9,5.3c0.3,1.2,1.5,0.9,2.1,0.7c0.2-0.1,0.3-0.2,0.4-0.4
	C161.1,57.2,161.3,54.9,159.3,52.4z"/>
<path id="XMLID_20_" d="M159.4,62.4c0,0-0.7,2-0.5,2.9c0.2,0.7,0.8,0.5,1.1,0.4c0.1,0,0.2-0.1,0.2-0.2
	C160.3,65,160.4,63.8,159.4,62.4z"/>
<g id="XMLID_5_">
	<path id="XMLID_29_" d="M77.7,27.5c0,0,0.7,0.6,1.9,1.8c0.6,0.6,1.3,1.3,2.1,2.2c0.4,0.4,0.8,0.9,1.3,1.3c0.2,0.2,0.4,0.5,0.6,0.8
		c0.2,0.3,0.4,0.6,0.6,0.9c3.1,4.7,7.3,11,11.5,17.2C99.7,58,103.9,64.3,107,69c0.2,0.3,0.4,0.6,0.6,0.9c0.2,0.3,0.4,0.5,0.5,0.8
		c0.3,0.6,0.5,1.2,0.7,1.7c0.5,1.1,0.8,2,1.2,2.8c0.6,1.6,1,2.5,1,2.5s-0.7-0.7-1.9-1.8c-0.6-0.6-1.3-1.3-2.1-2.2
		c-0.4-0.4-0.8-0.9-1.3-1.3c-0.2-0.2-0.4-0.5-0.6-0.8c-0.2-0.3-0.4-0.6-0.6-0.9c-3.1-4.7-7.3-11-11.5-17.2
		c-4.2-6.3-8.3-12.5-11.5-17.2c-0.2-0.3-0.4-0.6-0.6-0.9c-0.2-0.3-0.4-0.5-0.5-0.8c-0.3-0.6-0.5-1.2-0.7-1.7c-0.5-1.1-0.8-2-1.2-2.8
		C78,28.4,77.7,27.5,77.7,27.5z"/>
</g>
<g id="XMLID_8_">
	<path id="XMLID_27_" d="M106.9,75.2c0,0,0.5-0.7,1.5-1.8c0.5-0.6,1-1.2,1.7-2c0.3-0.4,0.7-0.8,1.1-1.2c0.2-0.2,0.4-0.4,0.7-0.5
		c0.2-0.2,0.5-0.3,0.7-0.5c3.9-2.9,9.1-6.7,14.4-10.5c5.2-3.8,10.5-7.6,14.4-10.5c0.2-0.2,0.5-0.3,0.7-0.5c0.2-0.2,0.4-0.4,0.7-0.5
		c0.5-0.2,1-0.5,1.5-0.7c0.9-0.4,1.7-0.8,2.4-1c1.3-0.6,2.1-0.9,2.1-0.9s-0.5,0.7-1.5,1.8c-0.5,0.6-1,1.2-1.7,2
		c-0.3,0.4-0.7,0.8-1.1,1.2c-0.2,0.2-0.4,0.4-0.7,0.5c-0.2,0.2-0.5,0.3-0.7,0.5c-3.9,2.9-9.1,6.7-14.4,10.5s-10.5,7.6-14.4,10.5
		c-0.2,0.2-0.5,0.4-0.7,0.5c-0.2,0.2-0.4,0.4-0.7,0.5c-0.5,0.2-1,0.5-1.5,0.7c-0.9,0.4-1.7,0.8-2.4,1
		C107.7,74.9,106.9,75.2,106.9,75.2z"/>
</g>
<text id="XMLID_9_" transform="matrix(1 0 0 1 5 20.2353)" class="st1 st2">I AM TIRED....</text>
</svg>
