<?xml version="1.0" encoding="utf-8"?>
<!-- Generator: Adobe Illustrator 19.0.0, SVG Export Plug-In . SVG Version: 6.00 Build 0)  -->
<svg version="1.1" id="svg_3" xmlns="http://www.w3.org/2000/svg" xmlns:xlink="http://www.w3.org/1999/xlink" x="0px" y="0px"
	 viewBox="0 0 120 224.4" style="enable-background:new 0 0 120 224.4;" xml:space="preserve">
<style type="text/css">

	#svg_3:hover {
	background-color: black;
	fill:white;
	}
	.st0{fill:#FFFFFF;}
	.st1{font-family:'3ds-CondensedBold';}
	.st2{font-size:9.5621px;}
</style>
<g id="XMLID_1_">
	<circle id="XMLID_15_" class="st0" cx="36.5" cy="27.5" r="25.5"/>
	<path id="XMLID_12_" d="M62,27.9c0,0,0,0.6-0.1,1.8c0,0.6-0.1,1.3-0.2,2.2c-0.1,0.4-0.1,0.9-0.1,1.4c-0.1,0.5-0.2,1-0.3,1.6
		c-0.4,2.2-1,4.9-2.5,7.8c-0.4,0.7-0.8,1.4-1.3,2.2c-0.5,0.7-1.1,1.4-1.6,2.2c-0.6,0.7-1.3,1.3-2.1,1.9c-0.8,0.6-1.6,1.2-2.4,1.7
		c-3.4,2.2-7.6,3.8-12.2,4.3c-0.6,0.1-1.2,0.1-1.7,0.1l-0.9,0l-0.4,0c0.1,0-0.2,0-0.2,0l-0.1,0l-0.1,0l-0.2,0
		c-1.1-0.1-2.2-0.1-3.5-0.3c-2.5-0.3-4.8-1.1-7.2-2.2c-2.3-1-4.5-2.5-6.5-4.2c-2-1.7-3.7-3.7-5.2-5.9c-1.4-2.2-2.5-4.7-3.3-7.3
		c-0.3-1.3-0.7-2.6-0.8-4c-0.1-0.7-0.2-1.3-0.2-2L9,27c0.1-1.3,0.1-2.4,0.4-3.9c0.2-1.4,0.6-2.7,0.9-4c0.9-2.5,2-5,3.5-7.2
		c1.5-2.2,3.3-4.1,5.3-5.8c2-1.6,4.2-3,6.6-4c2.3-0.9,4.7-1.7,7.2-1.9C34.1,0,35.3,0.1,36.5,0l0.2,0l0.1,0l0.1,0L37,0l0.4,0l0.8,0.1
		c0.6,0,1.1,0,1.7,0.1c1.2,0.2,2.4,0.3,3.5,0.7C43.9,1,44.5,1.2,45,1.3c0.5,0.2,1,0.4,1.5,0.6c2,0.8,3.9,1.8,5.6,2.9
		c1.6,1.2,3.2,2.3,4.4,3.8c0.5,0.8,1.1,1.4,1.5,2.2c0.4,0.8,0.9,1.5,1.2,2.2c1.4,2.9,1.9,5.7,2.3,7.9c0.1,0.6,0.2,1.1,0.2,1.6
		c0.1,0.5,0.1,1,0.1,1.4c0.1,0.9,0.1,1.6,0.1,2.2C62,27.2,62,27.9,62,27.9z M62,27.9c0,0,0-0.6-0.1-1.8c0-0.3,0-0.6-0.1-1
		c-0.1-0.4-0.1-0.7-0.2-1.2c-0.1-0.4-0.2-0.9-0.3-1.3c-0.2-0.5-0.3-0.9-0.5-1.5c-0.8-2-2-4.4-4-6.5c-1-1.1-2-2.2-3.2-3.2
		c-0.6-0.5-1.2-1-1.8-1.6c-0.6-0.5-1.3-1-2-1.6c-1.5-0.9-3-1.9-4.8-2.5c-0.4-0.2-0.9-0.3-1.3-0.5c-0.5-0.1-0.9-0.2-1.4-0.4
		c-0.9-0.3-1.8-0.4-2.8-0.6c-0.5-0.1-1.1-0.1-1.6-0.1L37.2,4l-0.4,0c-0.1,0,0.1,0,0.1,0l0,0l-0.1,0l-0.2,0c-1,0.1-2.1,0-3.1,0.2
		c-2.1,0.2-4.1,0.9-6.1,1.7c-2,0.8-3.9,2-5.6,3.4c-1.7,1.4-3.2,3.1-4.6,4.9c-1.3,1.9-2.3,4-3,6.1c-0.3,1.1-0.6,2.2-0.8,3.3
		c-0.2,1-0.2,2.4-0.3,3.6c0-0.2,0,0,0,0l0,0.1l0,0.1l0,0.2l0,0.4l0,0.9c0,0.6,0.1,1.1,0.2,1.7c0.1,1.2,0.4,2.3,0.7,3.4
		c0.7,2.2,1.6,4.3,2.8,6.2c1.3,1.9,2.7,3.6,4.4,5.1c1.7,1.4,3.5,2.7,5.5,3.6c0.5,0.3,1,0.4,1.5,0.6c0.5,0.2,1,0.4,1.5,0.5
		c0.5,0.1,1,0.3,1.5,0.4c0.5,0.1,1,0.2,1.5,0.3c0.9,0.2,2.1,0.2,3.2,0.3l0.2,0l0.1,0l0.1,0c0,0-0.2,0-0.1,0l0.4,0l0.8,0
		c0.5,0,1,0,1.5-0.1c3.9-0.4,7.5-1.8,10.4-3.6c0.7-0.5,1.4-1,2-1.5c0.6-0.6,1.2-1.1,1.8-1.6c1.2-1,2.3-2.1,3.3-3.1
		c2-2.1,3.3-4.4,4.2-6.4c0.2-0.5,0.4-1,0.6-1.4c0.1-0.5,0.2-0.9,0.3-1.3c0.1-0.4,0.2-0.8,0.3-1.1c0.1-0.4,0.1-0.7,0.1-1
		C61.9,28.5,62,27.9,62,27.9z"/>
</g>
<g id="XMLID_3_">
	<path id="XMLID_19_" d="M36.5,48.6c0,0,0.2,1.8,0.6,4.9c0.2,1.6,0.4,3.4,0.6,5.6c0.1,1.1,0.2,2.2,0.3,3.4c0.1,1.2,0,2.5,0,3.8
		c0,10.7,0,24.9,0,39.1s0,28.4,0,39.1c0,0.7,0,1.3,0,2c0,0.6,0,1.3,0,1.9c-0.1,1.2-0.2,2.4-0.3,3.4c-0.2,2.2-0.4,4.1-0.6,5.6
		c-0.3,3.1-0.6,4.9-0.6,4.9s-0.2-1.8-0.6-4.9c-0.2-1.6-0.4-3.4-0.6-5.6c-0.1-1.1-0.2-2.2-0.3-3.4c-0.1-0.6-0.1-1.2,0-1.9
		c0-0.6,0-1.3,0-2c0-10.7,0-24.9,0-39.1s0-28.4,0-39.1c0-1.3-0.1-2.6,0-3.8c0.1-1.2,0.2-2.4,0.3-3.4c0.2-2.2,0.4-4.1,0.6-5.6
		C36.3,50.4,36.5,48.6,36.5,48.6z"/>
</g>
<g id="XMLID_2_">
	<path id="XMLID_18_" d="M36.5,155.2c0,0-0.2,1.2-0.5,3.2c-0.2,1-0.4,2.2-0.7,3.6c-0.1,0.7-0.3,1.4-0.4,2.2
		c-0.2,0.8-0.6,1.5-0.8,2.3c-2.3,6.5-5.4,15.1-8.5,23.8c-3.1,8.6-6.2,17.3-8.5,23.8c-0.1,0.4-0.3,0.8-0.4,1.2
		c-0.1,0.4-0.2,0.8-0.4,1.1c-0.4,0.7-0.7,1.4-1.1,2c-0.7,1.2-1.3,2.3-1.8,3.2c-1,1.8-1.6,2.8-1.6,2.8s0.2-1.2,0.5-3.2
		c0.2-1,0.4-2.2,0.7-3.6c0.1-0.7,0.3-1.4,0.4-2.2c0.1-0.4,0.2-0.8,0.4-1.1c0.2-0.4,0.3-0.8,0.4-1.2c2.3-6.5,5.4-15.1,8.5-23.8
		s6.2-17.3,8.5-23.8c0.3-0.8,0.5-1.6,0.8-2.3c0.4-0.7,0.7-1.4,1.1-2c0.7-1.3,1.3-2.3,1.8-3.2C35.9,156.2,36.5,155.2,36.5,155.2z"/>
</g>
<g id="XMLID_4_">
	<path id="XMLID_21_" d="M35.7,155.2c0,0,0.7,1,1.8,2.8c0.5,0.9,1.2,1.9,1.9,3.2c0.4,0.6,0.8,1.3,1.2,2c0.4,0.7,0.6,1.5,1,2.3
		c2.7,6.5,6.2,15.1,9.8,23.8c3.6,8.6,7.1,17.3,9.8,23.8c0.2,0.4,0.3,0.8,0.5,1.2c0.2,0.4,0.3,0.8,0.4,1.2c0.2,0.8,0.4,1.5,0.6,2.2
		c0.4,1.4,0.6,2.6,0.9,3.6c0.5,2,0.7,3.2,0.7,3.2s-0.7-1-1.7-2.8c-0.5-0.9-1.2-2-1.9-3.2c-0.4-0.6-0.8-1.3-1.2-2
		c-0.2-0.3-0.4-0.7-0.5-1.1c-0.1-0.4-0.3-0.8-0.5-1.2c-2.7-6.5-6.2-15.1-9.8-23.8c-3.6-8.6-7.1-17.3-9.8-23.8
		c-0.3-0.8-0.7-1.5-1-2.3c-0.2-0.8-0.4-1.5-0.6-2.2c-0.4-1.4-0.6-2.6-0.9-3.6C35.9,156.4,35.7,155.2,35.7,155.2z"/>
</g>
<g id="XMLID_5_">
	<path id="XMLID_26_" d="M36.5,88.5c0,0,1.2-0.2,3.3-0.6c1-0.2,2.3-0.4,3.8-0.6c0.7-0.1,1.5-0.2,2.3-0.3c0.8-0.1,1.7,0,2.6,0
		c7.1,0,16.7,0,26.2-0.1c9.5,0,19,0,26.2-0.1c0.4,0,0.9,0,1.3,0c0.4,0,0.8,0,1.3,0c0.8,0.1,1.6,0.2,2.3,0.3c1.5,0.2,2.7,0.4,3.8,0.6
		c2.1,0.3,3.3,0.6,3.3,0.6s-1.2,0.2-3.3,0.6c-1,0.2-2.3,0.4-3.8,0.6c-0.7,0.1-1.5,0.2-2.3,0.3c-0.4,0.1-0.8,0.1-1.3,0
		c-0.4,0-0.9,0-1.3,0c-7.1,0-16.7,0-26.2,0.1c-9.5,0-19,0-26.2,0.1c-0.9,0-1.7,0.1-2.6,0c-0.8-0.1-1.6-0.2-2.3-0.3
		c-1.5-0.2-2.7-0.4-3.8-0.6C37.7,88.7,36.5,88.5,36.5,88.5z"/>
</g>
<g id="XMLID_6_">
	<path id="XMLID_33_" d="M37.1,88.7c0,0-0.5,0.4-1.4,1c-0.5,0.3-1,0.7-1.7,1.1c-0.3,0.2-0.7,0.4-1,0.6c-0.2,0.1-0.4,0.2-0.6,0.2
		c-0.2,0-0.4,0.1-0.6,0.2c-3.5,1-8.1,2.4-12.8,3.7s-9.3,2.7-12.8,3.7c-0.2,0.1-0.4,0.1-0.6,0.2c-0.2,0.1-0.4,0.1-0.6,0.1
		c-0.4,0-0.8,0-1.2,0c-0.8,0-1.4,0-2,0c-1.1,0-1.8-0.1-1.8-0.1s0.5-0.4,1.4-1c0.5-0.3,1-0.7,1.7-1.1c0.3-0.2,0.7-0.4,1-0.6
		c0.2-0.1,0.4-0.2,0.6-0.2c0.2,0,0.4-0.1,0.6-0.2c3.5-1,8.1-2.4,12.8-3.7S27.4,90,30.9,89c0.2-0.1,0.4-0.1,0.6-0.2
		c0.2-0.1,0.4-0.2,0.6-0.2c0.4,0,0.8,0,1.2,0c0.8,0,1.4,0,2,0C36.5,88.7,37.1,88.7,37.1,88.7z"/>
</g>
<g id="XMLID_7_">
	<path id="XMLID_35_" d="M1.4,98.6c0,0,0.7,0.1,1.8,0.3c0.6,0.1,1.2,0.2,2,0.4c0.4,0.1,0.8,0.2,1.2,0.3c0.2,0,0.4,0.2,0.6,0.3
		c0.2,0.1,0.4,0.2,0.6,0.3c3.2,1.8,7.5,4.2,11.8,6.6c4.3,2.4,8.6,4.8,11.8,6.6c0.2,0.1,0.4,0.2,0.6,0.3c0.2,0.1,0.4,0.2,0.5,0.3
		c0.3,0.3,0.6,0.6,0.9,0.9c0.6,0.5,1,1,1.4,1.4c0.8,0.8,1.2,1.3,1.2,1.3s-0.6-0.1-1.7-0.3c-0.5-0.1-1.2-0.3-2-0.4
		c-0.4-0.1-0.8-0.2-1.2-0.3c-0.2,0-0.4-0.1-0.6-0.3c-0.2-0.1-0.4-0.2-0.6-0.3c-3.2-1.8-7.5-4.2-11.8-6.6s-8.6-4.8-11.8-6.6
		c-0.2-0.1-0.4-0.2-0.6-0.3c-0.2-0.1-0.4-0.2-0.6-0.3c-0.3-0.3-0.6-0.6-0.9-0.9c-0.6-0.5-1-1-1.4-1.4C1.8,99.1,1.4,98.6,1.4,98.6z"
		/>
</g>
<path id="XMLID_9_" d="M104.7,88.6c0,0,0.8,3.3,4.2,2.9s3.1-2.8,3.1-2.8l6.8-0.3l-14.1-1.3V88.6z"/>
<g id="XMLID_8_">
	<line id="XMLID_39_" class="st0" x1="65.1" y1="37.1" x2="70.1" y2="37.3"/>
	<path id="XMLID_38_" d="M65.1,37.1c0,0,0.3-0.2,0.8-0.3c0.5-0.1,1.1-0.2,1.7-0.2c0.6,0,1.2,0.1,1.7,0.3c0.5,0.1,0.8,0.3,0.8,0.3
		s-0.3,0.2-0.8,0.3c-0.5,0.1-1.1,0.2-1.7,0.2c-0.6,0-1.2-0.1-1.7-0.3C65.4,37.3,65.1,37.1,65.1,37.1z"/>
</g>
<g id="XMLID_22_">
	<line id="XMLID_42_" class="st0" x1="64.5" y1="39.3" x2="69.5" y2="39.4"/>
	<path id="XMLID_41_" d="M64.5,39.3c0,0,0.3-0.2,0.8-0.3c0.5-0.1,1.1-0.2,1.7-0.2c0.6,0,1.2,0.1,1.7,0.3c0.5,0.1,0.8,0.3,0.8,0.3
		s-0.3,0.2-0.8,0.3c-0.5,0.1-1.1,0.2-1.7,0.2c-0.6,0-1.2-0.1-1.7-0.3C64.8,39.5,64.5,39.3,64.5,39.3z"/>
</g>
<g id="XMLID_23_">
	<line id="XMLID_45_" class="st0" x1="63.8" y1="41.7" x2="68.4" y2="43.9"/>
	<path id="XMLID_44_" d="M63.8,41.7c0,0,0.4,0,0.8,0.1c0.5,0.1,1.1,0.3,1.6,0.6c0.6,0.3,1.1,0.6,1.5,1c0.4,0.3,0.6,0.6,0.6,0.6
		s-0.4,0-0.8-0.1c-0.5-0.1-1.1-0.3-1.6-0.6c-0.6-0.3-1.1-0.6-1.5-1C64,42,63.8,41.7,63.8,41.7z"/>
</g>
<g id="XMLID_24_">
	<line id="XMLID_48_" class="st0" x1="63.1" y1="43" x2="67.4" y2="45.7"/>
	<path id="XMLID_47_" d="M63.1,43c0,0,0.4,0,0.8,0.2c0.5,0.1,1,0.4,1.6,0.7c0.5,0.3,1,0.7,1.3,1.1c0.3,0.4,0.5,0.7,0.5,0.7
		s-0.4,0-0.8-0.2c-0.5-0.1-1-0.4-1.6-0.7c-0.5-0.3-1-0.7-1.3-1.1C63.3,43.3,63.1,43,63.1,43z"/>
</g>
<text id="XMLID_10_" transform="matrix(1.1289 0 0 1 44.9139 79.4903)" class="st1 st2">YOU ARE FUNNY </text>
<text id="XMLID_28_" transform="matrix(1.1289 0 0 1 68.5463 103.4585)" class="st1 st2">HAHA</text>
</svg>
