<?xml version="1.0" encoding="utf-8"?>
<!-- Generator: Adobe Illustrator 19.0.0, SVG Export Plug-In . SVG Version: 6.00 Build 0)  -->
<svg version="1.1" id="svg_8" xmlns="http://www.w3.org/2000/svg" xmlns:xlink="http://www.w3.org/1999/xlink" x="0px" y="0px"
	 viewBox="0 0 240.1 251.5" style="enable-background:new 0 0 240.1 251.5;" xml:space="preserve">
<style type="text/css">

	#svg_8:hover {
	background-color: black;
	fill:white;
	}
	.st0{fill:#FFFFFF;}
</style>
<g id="XMLID_1_">
	<circle id="XMLID_27_" class="st0" cx="116.2" cy="56.3" r="25.5"/>
	<path id="XMLID_24_" d="M141.7,55.9c0,0,0,0.6,0,1.8c0,0.6,0,1.3-0.1,2.2c0,0.4,0,0.9-0.1,1.4c-0.1,0.5-0.1,1-0.2,1.6
		c-0.4,2.2-0.9,5-2.3,7.9c-0.3,0.7-0.8,1.5-1.2,2.2c-0.4,0.8-1,1.4-1.5,2.2c-0.6,0.7-1.3,1.3-2,2c-0.8,0.6-1.6,1.2-2.4,1.8
		c-3.3,2.3-7.5,4-12.1,4.6c-0.6,0.1-1.2,0.1-1.7,0.1l-0.9,0.1l-0.4,0c0.1,0-0.2,0-0.2,0l-0.1,0l-0.1,0l-0.2,0
		c-1.1-0.1-2.2,0-3.5-0.2c-2.5-0.3-4.9-1-7.2-1.9c-2.3-1-4.5-2.4-6.6-4c-2-1.7-3.8-3.6-5.3-5.8c-1.5-2.2-2.7-4.6-3.5-7.2
		c-0.4-1.3-0.7-2.6-0.9-3.9c-0.1-0.7-0.2-1.3-0.3-2l-0.1-2.1c0.1-1.3,0-2.4,0.3-3.9c0.1-1.4,0.5-2.7,0.8-4c0.8-2.6,1.9-5,3.3-7.3
		c1.5-2.2,3.2-4.2,5.2-5.9c2-1.7,4.1-3.1,6.5-4.2c2.3-1,4.7-1.8,7.1-2.2c1.2-0.3,2.4-0.3,3.6-0.4l0.2,0l0.1,0l0.1,0l0.2,0l0.4,0
		l0.8,0c0.6,0,1.1,0,1.7,0.1c1.2,0.2,2.4,0.3,3.5,0.6c0.5,0.1,1.1,0.3,1.6,0.4c0.5,0.2,1,0.4,1.6,0.5c2.1,0.7,3.9,1.7,5.7,2.8
		c1.6,1.2,3.3,2.2,4.5,3.7c0.6,0.7,1.2,1.4,1.6,2.2c0.4,0.8,0.9,1.4,1.3,2.2c1.5,2.9,2.1,5.6,2.5,7.8c0.1,0.5,0.2,1.1,0.3,1.6
		c0.1,0.5,0.1,1,0.2,1.4c0.1,0.8,0.2,1.6,0.2,2.2C141.6,55.3,141.7,55.9,141.7,55.9z M141.7,55.9c0,0,0-0.6-0.1-1.8
		c0-0.3,0-0.6-0.1-1c-0.1-0.4-0.2-0.7-0.3-1.2c-0.1-0.4-0.2-0.9-0.3-1.3c-0.2-0.5-0.4-0.9-0.6-1.4c-0.8-2-2.2-4.3-4.2-6.4
		c-1-1.1-2.1-2.1-3.3-3.1c-0.6-0.5-1.3-1-1.8-1.6c-0.6-0.5-1.3-1-2-1.5c-1.5-0.9-3.1-1.8-4.8-2.4c-0.4-0.2-0.9-0.3-1.3-0.5
		c-0.5-0.1-0.9-0.2-1.4-0.3c-0.9-0.3-1.9-0.3-2.8-0.5c-0.5-0.1-1.1-0.1-1.6-0.1l-0.8,0l-0.4,0c-0.1,0,0.1,0,0.1,0l0,0l-0.1,0l-0.2,0
		c-1,0.1-2.1,0.1-3.1,0.3c-2.1,0.3-4.1,1-6.1,1.8c-2,0.9-3.8,2.1-5.5,3.6c-1.7,1.5-3.1,3.2-4.4,5.1c-1.2,1.9-2.1,4-2.8,6.2
		c-0.3,1.1-0.6,2.2-0.7,3.3c-0.2,1-0.2,2.4-0.2,3.6c0-0.2,0,0,0,0l0,0.1l0,0.1l0,0.2l0,0.4l0.1,0.9c0,0.6,0.1,1.1,0.2,1.7
		c0.1,1.1,0.5,2.2,0.8,3.4c0.7,2.2,1.7,4.3,3,6.1c1.3,1.8,2.8,3.5,4.6,4.9c1.8,1.4,3.6,2.6,5.6,3.4c0.5,0.3,1,0.4,1.5,0.6
		c0.5,0.2,1,0.4,1.5,0.5c0.5,0.1,1,0.2,1.5,0.4c0.5,0.1,1,0.1,1.5,0.2c0.9,0.2,2.1,0.2,3.2,0.2l0.2,0l0.1,0l0.1,0c0,0-0.2,0-0.1,0
		l0.4,0l0.8-0.1c0.5,0,1,0,1.5-0.1c3.9-0.5,7.5-2,10.3-4c0.7-0.5,1.4-1,2-1.6c0.6-0.6,1.2-1.1,1.8-1.7c1.2-1,2.2-2.1,3.2-3.2
		c1.9-2.2,3.2-4.5,4-6.5c0.2-0.5,0.4-1,0.5-1.5c0.1-0.5,0.2-0.9,0.3-1.3c0.1-0.4,0.2-0.8,0.2-1.2c0.1-0.4,0.1-0.7,0.1-1
		C141.6,56.6,141.7,55.9,141.7,55.9z"/>
</g>
<g id="XMLID_3_">
	<path id="XMLID_19_" d="M117,75.6c0,0,0.2,1.8,0.6,4.9c0.2,1.6,0.4,3.4,0.6,5.6c0.1,1.1,0.2,2.2,0.3,3.4c0.1,1.2,0,2.5,0,3.8
		c0,10.7,0,24.9,0,39.1s0,28.4,0,39.1c0,0.7,0,1.3,0,2c0,0.6,0,1.3,0,1.9c-0.1,1.2-0.2,2.4-0.3,3.4c-0.2,2.2-0.4,4.1-0.6,5.6
		c-0.3,3.1-0.6,4.9-0.6,4.9s-0.2-1.8-0.6-4.9c-0.2-1.6-0.4-3.4-0.6-5.6c-0.1-1.1-0.2-2.2-0.3-3.4c-0.1-0.6-0.1-1.2,0-1.9
		c0-0.6,0-1.3,0-2c0-10.7,0-24.9,0-39.1s0-28.4,0-39.1c0-1.3-0.1-2.6,0-3.8c0.1-1.2,0.2-2.4,0.3-3.4c0.2-2.2,0.4-4.1,0.6-5.6
		C116.7,77.4,117,75.6,117,75.6z"/>
</g>
<g id="XMLID_2_">
	<path id="XMLID_18_" d="M117,182.3c0,0-0.2,1.2-0.5,3.2c-0.2,1-0.4,2.2-0.7,3.6c-0.1,0.7-0.3,1.4-0.4,2.2c-0.2,0.8-0.6,1.5-0.8,2.3
		c-2.3,6.5-5.4,15.1-8.5,23.8c-3.1,8.6-6.2,17.3-8.5,23.8c-0.1,0.4-0.3,0.8-0.4,1.2c-0.1,0.4-0.2,0.8-0.4,1.1
		c-0.4,0.7-0.7,1.4-1.1,2c-0.7,1.2-1.3,2.3-1.8,3.2c-1,1.8-1.6,2.8-1.6,2.8s0.2-1.2,0.5-3.2c0.2-1,0.4-2.2,0.7-3.6
		c0.1-0.7,0.3-1.4,0.4-2.2c0.1-0.4,0.2-0.8,0.4-1.1c0.2-0.4,0.3-0.8,0.4-1.2c2.3-6.5,5.4-15.1,8.5-23.8s6.2-17.3,8.5-23.8
		c0.3-0.8,0.5-1.6,0.8-2.3c0.4-0.7,0.7-1.4,1.1-2c0.7-1.3,1.3-2.3,1.8-3.2C116.4,183.3,117,182.3,117,182.3z"/>
</g>
<g id="XMLID_4_">
	<path id="XMLID_21_" d="M116.2,182.3c0,0,0.7,1,1.8,2.8c0.5,0.9,1.2,1.9,1.9,3.2c0.4,0.6,0.8,1.3,1.2,2c0.4,0.7,0.6,1.5,1,2.3
		c2.7,6.5,6.2,15.1,9.8,23.8c3.6,8.6,7.1,17.3,9.8,23.8c0.2,0.4,0.3,0.8,0.5,1.2c0.2,0.4,0.3,0.8,0.4,1.2c0.2,0.8,0.4,1.5,0.6,2.2
		c0.4,1.4,0.6,2.6,0.9,3.6c0.5,2,0.7,3.2,0.7,3.2s-0.7-1-1.7-2.8c-0.5-0.9-1.2-2-1.9-3.2c-0.4-0.6-0.8-1.3-1.2-2
		c-0.2-0.3-0.4-0.7-0.5-1.1c-0.1-0.4-0.3-0.8-0.5-1.2c-2.7-6.5-6.2-15.1-9.8-23.8c-3.6-8.6-7.1-17.3-9.8-23.8
		c-0.3-0.8-0.7-1.5-1-2.3c-0.2-0.8-0.4-1.5-0.6-2.2c-0.4-1.4-0.6-2.6-0.9-3.6C116.4,183.5,116.2,182.3,116.2,182.3z"/>
</g>
<g id="XMLID_5_">
	<path id="XMLID_15_" d="M116.2,104.9c0,0,0.9-0.5,2.5-1.4c0.8-0.4,1.8-1,2.9-1.5c0.6-0.3,1.2-0.6,1.8-0.9c0.6-0.3,1.4-0.4,2.1-0.7
		c5.8-1.8,13.6-4.3,21.4-6.7c7.8-2.5,15.6-4.9,21.4-6.7c0.4-0.1,0.7-0.2,1.1-0.4c0.3-0.1,0.7-0.2,1-0.3c0.7-0.1,1.4-0.2,2-0.3
		c1.2-0.2,2.3-0.3,3.2-0.4c1.8-0.2,2.8-0.3,2.8-0.3s-0.9,0.5-2.5,1.4c-0.8,0.4-1.8,1-2.9,1.5c-0.6,0.3-1.2,0.6-1.8,0.9
		c-0.3,0.2-0.7,0.3-1,0.4c-0.4,0.1-0.7,0.2-1.1,0.3c-5.8,1.8-13.6,4.3-21.4,6.7c-7.8,2.5-15.6,4.9-21.4,6.7
		c-0.7,0.2-1.4,0.5-2.1,0.7c-0.7,0.1-1.4,0.2-2,0.3c-1.2,0.2-2.3,0.3-3.2,0.4C117.2,104.8,116.2,104.9,116.2,104.9z"/>
</g>
<g id="XMLID_7_">
	<path id="XMLID_28_" d="M51.7,84.3c0,0,1.1,0.1,3,0.3c0.9,0.1,2.1,0.3,3.4,0.5c0.7,0.1,1.4,0.2,2.1,0.3c0.7,0.1,1.4,0.5,2.2,0.7
		c6.1,1.9,14.3,4.5,22.5,7.1c8.2,2.6,16.4,5.1,22.5,7.1c0.4,0.1,0.8,0.2,1.1,0.3c0.4,0.1,0.7,0.2,1.1,0.4c0.7,0.3,1.3,0.6,1.9,0.9
		c1.2,0.6,2.2,1.1,3.1,1.6c1.7,0.9,2.6,1.4,2.6,1.4s-1.1-0.1-3-0.3c-0.9-0.1-2.1-0.3-3.4-0.5c-0.7-0.1-1.4-0.2-2.1-0.3
		c-0.4,0-0.7-0.2-1.1-0.3c-0.4-0.1-0.7-0.2-1.1-0.4c-6.1-1.9-14.3-4.5-22.5-7.1c-8.2-2.6-16.4-5.1-22.5-7.1
		c-0.8-0.3-1.5-0.4-2.2-0.7c-0.7-0.3-1.3-0.6-1.9-0.9c-1.2-0.6-2.2-1.1-3.1-1.6C52.6,84.9,51.7,84.3,51.7,84.3z"/>
</g>
<g id="XMLID_8_">
	<g id="XMLID_29_">
		<path id="XMLID_148_" d="M3.6,15.1c-1.1-0.1-1.7-0.1-2.8-0.2c0-2.6,0-3.8,0-6.4c0-0.6,0.1-1.1,0.2-1.5c0.1-0.5,0.3-0.9,0.7-1.2
			c0.3-0.3,0.7-0.6,1.2-0.8c0.5-0.2,1.1-0.3,1.9-0.4c0.8-0.1,1.4,0,1.9,0.1C7.1,4.8,7.5,5,7.8,5.4c0.3,0.3,0.5,0.7,0.7,1.2
			c0.1,0.5,0.2,1.1,0.2,1.7c0,2.9,0,4.3,0,7.1c-1.2-0.1-1.8-0.1-2.9-0.2c0-1.4,0-2.1,0-3.4c-0.9,0-1.3,0-2.2-0.1
			C3.6,13.1,3.6,13.7,3.6,15.1z M5.8,9.8c0-0.7,0-1,0-1.6c0-0.6-0.1-1-0.2-1.3C5.4,6.5,5.1,6.4,4.7,6.4C4.3,6.4,4,6.6,3.8,6.9
			C3.7,7.2,3.6,7.6,3.6,8.2c0,0.6,0,1,0,1.6C4.5,9.8,4.9,9.8,5.8,9.8z"/>
		<path id="XMLID_146_" d="M13.6,4.1c0,1.8,0,2.8,0,4.6c1.1,0,1.6,0,2.6,0c0-1.9,0-2.8,0-4.7c1.2-0.1,1.8-0.1,2.9-0.2
			c0,5,0,7.4,0,12.4C18,16,17.4,16,16.3,15.9c0-2,0-3,0-5c-1.1,0-1.6,0-2.6,0c0,2,0,2.9,0,4.9c-1.2-0.1-1.8-0.1-2.9-0.2
			c0-4.5,0-6.8,0-11.3C11.8,4.2,12.4,4.2,13.6,4.1z"/>
		<path id="XMLID_144_" d="M24.3,3.4c0,2.1,0,3.1,0,5.1c1.1,0,1.6,0,2.6,0c0-2.1,0-3.2,0-5.3c1.2-0.1,1.8-0.1,2.9-0.2
			c0,5.5,0,8.2,0,13.7c-1.2-0.1-1.8-0.1-2.9-0.2c0-2.2,0-3.3,0-5.6c-1.1,0-1.6,0-2.6,0c0,2.2,0,3.3,0,5.4c-1.2-0.1-1.8-0.1-2.9-0.2
			c0-5.1,0-7.6,0-12.7C22.6,3.5,23.2,3.5,24.3,3.4z"/>
		<path id="XMLID_142_" d="M33.2,13.6c0.5,0,0.9,0.2,1.2,0.5c0.3,0.3,0.5,0.8,0.5,1.4c0,0.6-0.1,1-0.4,1.3c-0.3,0.3-0.7,0.4-1.2,0.4
			c-0.5,0-0.9-0.2-1.2-0.5c-0.3-0.3-0.5-0.8-0.5-1.3c0-0.6,0.1-1,0.4-1.3C32.3,13.7,32.7,13.6,33.2,13.6z"/>
		<path id="XMLID_140_" d="M37.5,13.7c0.5,0,0.9,0.2,1.2,0.5c0.3,0.3,0.5,0.8,0.5,1.4c0,0.6-0.1,1-0.4,1.3c-0.3,0.3-0.7,0.4-1.2,0.4
			c-0.5,0-0.9-0.2-1.2-0.5c-0.3-0.3-0.5-0.8-0.5-1.4c0-0.6,0.1-1,0.4-1.3C36.6,13.8,37,13.7,37.5,13.7z"/>
		<path id="XMLID_138_" d="M41.8,13.8c0.5,0,0.9,0.2,1.2,0.5c0.3,0.3,0.5,0.8,0.5,1.4c0,0.6-0.1,1.1-0.4,1.4
			c-0.3,0.3-0.7,0.5-1.2,0.4c-0.5,0-0.9-0.2-1.2-0.5c-0.3-0.3-0.5-0.8-0.5-1.4c0-0.6,0.1-1.1,0.4-1.4C40.9,13.9,41.3,13.8,41.8,13.8
			z"/>
		<path id="XMLID_136_" d="M46.1,13.9c0.5,0,0.9,0.2,1.2,0.5c0.3,0.3,0.5,0.8,0.5,1.5c0,0.6-0.1,1.1-0.4,1.4
			c-0.3,0.3-0.7,0.5-1.2,0.5c-0.5,0-0.9-0.2-1.2-0.6c-0.3-0.3-0.5-0.8-0.5-1.4c0-0.6,0.1-1.1,0.4-1.4C45.2,14,45.6,13.9,46.1,13.9z"
			/>
		<path id="XMLID_134_" d="M56.1,1.8c0,1.1,0,1.7,0,2.9c-1.5,0-2.3,0.1-3.8,0.1c0,1.7,0,2.5,0,4.2c1.3,0,2,0,3.3,0
			c0,1.1,0,1.7,0,2.9c-1.3,0-2,0-3.3,0c0,2.4,0,3.7,0,6.1c-1.2,0-1.8-0.1-2.9-0.1c0-6.3,0-9.4,0-15.6C52.1,2,53.4,1.9,56.1,1.8z"/>
		<path id="XMLID_132_" d="M60.5,1.6c0,6.6,0,9.9,0,16.5c-1.2,0-1.8-0.1-2.9-0.1c0-6.5,0-9.8,0-16.3C58.8,1.7,59.4,1.6,60.5,1.6z"/>
		<path id="XMLID_130_" d="M65.1,1.4c1.4,3,2.1,4.5,3.4,7.6c0-3.1,0-4.6,0-7.7c1.1,0,1.7-0.1,2.9-0.1c0,6.9,0,10.4,0,17.3
			c-1.1,0-1.7,0-2.9-0.1c0-1.4,0-2.2,0-3.6c-1.2-2.7-1.7-4-2.9-6.6c0,4,0,6.1,0,10.1c-1.1,0-1.7-0.1-2.9-0.1c0-6.7,0-10,0-16.7
			C63.7,1.5,64.2,1.5,65.1,1.4z"/>
		<path id="XMLID_127_" d="M76.2,18.6c-1.1,0-1.7,0-2.9-0.1c0-4.5,0-6.8,0-11.3c0-1,0.1-1.9,0.2-2.7c0.1-0.8,0.3-1.5,0.7-2
			c0.3-0.6,0.7-1,1.2-1.3c0.5-0.3,1.1-0.5,1.9-0.5c0.8,0,1.4,0.1,1.9,0.4c0.5,0.3,0.9,0.7,1.2,1.3c0.3,0.6,0.5,1.2,0.7,2
			c0.1,0.8,0.2,1.7,0.2,2.7c0,4.6,0,6.9,0,11.6c-1.2,0-1.8,0-2.9-0.1c0-2.3,0-3.4,0-5.7c-0.9,0-1.3,0-2.2,0
			C76.2,15.2,76.2,16.3,76.2,18.6z M78.4,9.6c0-1.1,0-1.6,0-2.7c0-1-0.1-1.7-0.2-2.2c-0.1-0.5-0.4-0.8-0.9-0.8
			c-0.4,0-0.7,0.3-0.9,0.8c-0.1,0.5-0.2,1.3-0.2,2.2c0,1.1,0,1.6,0,2.7C77.1,9.6,77.5,9.6,78.4,9.6z"/>
		<path id="XMLID_125_" d="M86.2,0.8c0,5.9,0,8.9,0,14.8c1.4,0,2.1,0,3.4,0c0,1.3,0,1.9,0,3.2c-2.5,0-3.8-0.1-6.3-0.1
			c0-7.2,0-10.7,0-17.9C84.5,0.8,85,0.8,86.2,0.8z"/>
		<path id="XMLID_123_" d="M93.9,0.6c0,6,0,9,0,15.1c1.4,0,2,0,3.4,0c0,1.3,0,2,0,3.3c-2.5,0-3.8,0-6.3-0.1c0-7.3,0-10.9,0-18.2
			C92.2,0.6,92.8,0.6,93.9,0.6z"/>
		<path id="XMLID_121_" d="M99.5,12.5c-1.3-4.8-2-7.2-3.3-12c1.2,0,1.8,0,3.1-0.1c0.7,3.1,1.1,4.7,1.8,7.8c0.2-0.7,0.4-1.3,0.6-1.9
			c0.2-0.6,0.3-1.2,0.5-1.9c0.1-0.6,0.3-1.3,0.4-1.9c0.1-0.7,0.2-1.4,0.3-2.1c1.1,0,1.7,0,2.8,0c-0.4,2.4-0.8,4.5-1.3,6.5
			c-0.5,1.9-1.2,3.8-1.9,5.5c0,2.6,0,3.9,0,6.6c-1.2,0-1.7,0-2.9,0C99.5,16.4,99.5,15.1,99.5,12.5z"/>
		<path id="XMLID_119_" d="M116.6,3.9c-0.2-0.1-0.3-0.1-0.5-0.2c-0.2-0.1-0.4-0.1-0.6-0.1c-0.2,0-0.4-0.1-0.6-0.1
			c-0.2,0-0.4,0-0.5,0c-0.4,0-0.7,0.1-0.9,0.4c-0.2,0.2-0.3,0.7-0.3,1.3c0,0.5,0.1,1,0.4,1.3c0.2,0.4,0.5,0.7,0.9,1.1
			c0.3,0.3,0.6,0.8,1,1.2c0.3,0.4,0.6,0.9,0.9,1.4s0.5,1.1,0.7,1.8c0.2,0.7,0.3,1.5,0.3,2.3c0,1.8-0.3,3.1-1,3.9
			c-0.7,0.8-1.6,1.2-2.9,1.2c-0.3,0-0.6,0-0.9-0.1c-0.3,0-0.6-0.1-0.8-0.2c-0.3-0.1-0.5-0.2-0.7-0.3c-0.2-0.1-0.4-0.2-0.6-0.3
			c0.1-1.3,0.2-2,0.3-3.3c0.2,0.1,0.4,0.2,0.6,0.3c0.2,0.1,0.5,0.2,0.7,0.2c0.2,0.1,0.5,0.1,0.7,0.2c0.2,0,0.5,0.1,0.7,0.1
			c0.3,0,0.5-0.1,0.7-0.4c0.2-0.2,0.3-0.7,0.3-1.3c0-0.6-0.1-1.2-0.4-1.6c-0.3-0.4-0.6-0.9-1-1.3c-0.3-0.4-0.6-0.7-0.9-1.2
			c-0.3-0.4-0.6-0.9-0.9-1.4c-0.3-0.5-0.5-1-0.7-1.6c-0.2-0.6-0.3-1.3-0.3-2c0-1,0.1-1.8,0.3-2.4c0.2-0.7,0.5-1.2,0.9-1.6
			c0.4-0.4,0.8-0.7,1.3-0.9c0.5-0.2,1.1-0.3,1.7-0.3c0.2,0,0.4,0,0.6,0c0.2,0,0.5,0,0.7,0.1c0.2,0,0.4,0.1,0.7,0.2
			c0.2,0.1,0.4,0.1,0.6,0.2C116.7,1.8,116.7,2.5,116.6,3.9z"/>
		<path id="XMLID_116_" d="M127.1,9.7c0,3.3-0.4,5.8-1.1,7.3c-0.7,1.6-1.9,2.3-3.3,2.3c-1.5,0-2.6-0.8-3.4-2.3
			c-0.7-1.5-1.1-4-1.1-7.3c0-3.4,0.4-5.8,1.1-7.4c0.7-1.6,1.8-2.3,3.4-2.3c1.5,0,2.6,0.8,3.4,2.3C126.7,3.9,127,6.3,127.1,9.7z
			 M124,9.7c0-1.2,0-2.2-0.1-3c-0.1-0.8-0.1-1.5-0.3-2c-0.1-0.5-0.3-0.9-0.4-1.1c-0.2-0.2-0.4-0.3-0.6-0.3c-0.2,0-0.5,0.1-0.6,0.3
			s-0.3,0.6-0.4,1.1c-0.1,0.5-0.2,1.2-0.3,2c-0.1,0.8-0.1,1.8-0.1,3c0,1.2,0,2.2,0.1,3c0.1,0.8,0.1,1.5,0.3,2
			c0.1,0.5,0.3,0.8,0.5,1.1c0.2,0.2,0.4,0.3,0.6,0.3c0.2,0,0.4-0.1,0.6-0.3c0.2-0.2,0.3-0.6,0.4-1.1c0.1-0.5,0.2-1.2,0.3-2
			C124,11.9,124,10.9,124,9.7z"/>
		<path id="XMLID_114_" d="M133.2,13.4c-0.6-2.2-0.9-3.3-1.5-5.5c0,4.4,0,6.6,0,11.1c-1.2,0-1.7,0-2.9,0c0-7.5,0-11.2,0-18.7
			c1.1,0,1.7,0,2.9,0c1,3.4,1.6,5.1,2.6,8.5c1-3.4,1.6-5.1,2.6-8.5c1.1,0,1.7,0,2.9,0c0,7.4,0,11.1,0,18.5c-1.2,0-1.7,0-2.9,0
			c0-4.4,0-6.6,0-11c-0.6,2.2-0.9,3.3-1.5,5.5C134.4,13.3,134,13.3,133.2,13.4z"/>
		<path id="XMLID_112_" d="M148.3,0.5c0,1.3,0,1.9,0,3.2c-1.4,0-2.1,0-3.6,0c0,1.7,0,2.5,0,4.2c1.3,0,2,0,3.3,0c0,1.3,0,2,0,3.3
			c-1.3,0-2,0-3.3,0c0,1,0,1.5,0,2.5c0,0.8,0.1,1.3,0.3,1.5c0.2,0.2,0.4,0.4,0.6,0.3c1.1,0,1.7,0,2.8,0c0,1.3,0,1.9,0,3.2
			c-1.2,0-1.8,0-3,0.1c-0.6,0-1.1-0.1-1.6-0.2c-0.5-0.2-0.8-0.4-1.2-0.8c-0.3-0.4-0.6-0.9-0.7-1.6c-0.2-0.7-0.2-1.5-0.2-2.5
			c0-5.3,0-7.9,0-13.2C144.4,0.4,145.7,0.4,148.3,0.5z"/>
		<path id="XMLID_110_" d="M157.1,0.6c0,2.8,0,4.2,0,7c1.1,0,1.6,0,2.7,0c0-2.8,0-4.2,0-7c1.2,0,1.8,0,2.9,0.1c0,7,0,10.6,0,17.6
			c-1.2,0-1.8,0.1-2.9,0.1c0-3,0-4.5,0-7.4c-1.1,0-1.6,0-2.7,0c0,3,0,4.5,0,7.5c-1.2,0-1.8,0-2.9,0.1c0-7.2,0-10.8,0-18
			C155.3,0.6,155.9,0.6,157.1,0.6z"/>
		<path id="XMLID_107_" d="M167.4,18.2c-1.1,0-1.7,0.1-2.9,0.1c0-4.5,0-6.8,0-11.4c0-1,0.1-1.9,0.2-2.7c0.1-0.8,0.3-1.5,0.7-2
			c0.3-0.5,0.7-1,1.2-1.2c0.5-0.3,1.1-0.4,1.9-0.4c0.8,0,1.4,0.2,1.9,0.5c0.5,0.3,0.9,0.7,1.2,1.3c0.3,0.5,0.5,1.2,0.7,2
			c0.1,0.8,0.2,1.6,0.2,2.6c0,4.4,0,6.6,0,11.1c-1.2,0-1.8,0.1-2.9,0.1c0-2.2,0-3.4,0-5.6c-0.9,0-1.3,0-2.2,0
			C167.4,14.8,167.4,16,167.4,18.2z M169.6,9.3c0-1.1,0-1.6,0-2.7c0-0.9-0.1-1.7-0.2-2.2s-0.4-0.8-0.9-0.8c-0.4,0-0.7,0.2-0.9,0.7
			c-0.1,0.5-0.2,1.2-0.2,2.2c0,1.1,0,1.6,0,2.7C168.3,9.3,168.8,9.3,169.6,9.3z"/>
		<path id="XMLID_104_" d="M177.9,1.2c0.7,0,1.2,0.1,1.7,0.3c0.5,0.2,0.9,0.5,1.2,1c0.3,0.4,0.6,1,0.7,1.7c0.2,0.7,0.3,1.5,0.3,2.5
			c0,1-0.1,1.9-0.3,2.6c-0.2,0.7-0.4,1.3-0.8,1.7c-0.3,0.4-0.7,0.8-1.2,0.9c-0.4,0.2-0.9,0.3-1.5,0.3c-0.3,0-0.6,0-0.8-0.1
			c0,2.2,0,3.4,0,5.6c-1.2,0-1.8,0.1-2.9,0.1c0-6.8,0-10.1,0-16.9C175.9,1.1,176.6,1.1,177.9,1.2z M177.5,9.2c0.1,0,0.2,0,0.2,0
			c0.1,0,0.1,0,0.2,0c0.4,0,0.7-0.2,0.9-0.6c0.2-0.4,0.3-1.1,0.3-2c0-0.5,0-0.9-0.1-1.2c0-0.3-0.1-0.6-0.2-0.8
			c-0.1-0.2-0.2-0.3-0.3-0.4c-0.1-0.1-0.3-0.1-0.5-0.1c-0.2,0-0.3,0-0.5,0C177.5,6.2,177.5,7.2,177.5,9.2z"/>
		<path id="XMLID_101_" d="M186.9,1.5c0.7,0,1.2,0.1,1.7,0.3c0.5,0.2,0.9,0.5,1.2,0.9c0.3,0.4,0.6,1,0.7,1.6
			c0.2,0.7,0.3,1.5,0.3,2.4c0,1-0.1,1.8-0.3,2.5c-0.2,0.7-0.4,1.2-0.8,1.6c-0.3,0.4-0.7,0.7-1.2,0.9c-0.4,0.2-0.9,0.3-1.5,0.3
			c-0.3,0-0.6,0-0.8-0.1c0,2.2,0,3.2,0,5.4c-1.2,0.1-1.8,0.1-2.9,0.1c0-6.5,0-9.7,0-16.2C184.9,1.4,185.6,1.5,186.9,1.5z M186.4,9.2
			c0.1,0,0.2,0,0.2,0c0.1,0,0.1,0,0.2,0c0.4,0,0.7-0.2,0.9-0.6c0.2-0.4,0.3-1,0.3-1.9c0-0.5,0-0.9-0.1-1.2c0-0.3-0.1-0.6-0.2-0.7
			c-0.1-0.2-0.2-0.3-0.3-0.4c-0.1-0.1-0.3-0.1-0.5-0.1c-0.2,0-0.3,0-0.5,0C186.4,6.3,186.4,7.3,186.4,9.2z"/>
		<path id="XMLID_99_" d="M194.6,11.8c-1.3-4-2-6-3.3-10.1c1.2,0.1,1.8,0.1,3.1,0.1c0.7,2.6,1.1,3.9,1.8,6.5
			c0.2-0.5,0.4-1.1,0.6-1.6c0.2-0.5,0.3-1,0.5-1.5c0.1-0.5,0.3-1,0.4-1.5c0.1-0.5,0.2-1.1,0.3-1.7c1.1,0.1,1.7,0.1,2.8,0.1
			c-0.4,1.9-0.8,3.5-1.3,5.1c-0.5,1.5-1.2,3-1.9,4.4c0,2.1,0,3.2,0,5.3c-1.2,0.1-1.7,0.1-2.9,0.1C194.6,15,194.6,13.9,194.6,11.8z"
			/>
		<path id="XMLID_97_" d="M213.2,2.8c0,0.9,0,1.4,0,2.4c-1.1,0-1.6-0.1-2.7-0.1c0,4.5,0,6.7,0,11.2c-1.2,0.1-1.8,0.1-2.9,0.2
			c0-4.6,0-6.9,0-11.5c-1.1,0-1.6-0.1-2.7-0.1c0-1,0-1.5,0-2.5C208.2,2.5,209.9,2.6,213.2,2.8z"/>
		<path id="XMLID_95_" d="M217.4,3.1c0,5.1,0,7.7,0,12.8c-1.2,0.1-1.8,0.1-2.9,0.2c0-5.3,0-7.9,0-13.2C215.7,3,216.3,3,217.4,3.1z"
			/>
		<path id="XMLID_93_" d="M224.1,11.9c-0.6-1.4-0.9-2.1-1.5-3.5c0,2.9,0,4.3,0,7.2c-1.2,0.1-1.7,0.1-2.9,0.2c0-5,0-7.5,0-12.5
			c1.1,0.1,1.7,0.1,2.9,0.2c1,2.3,1.6,3.4,2.6,5.6c1-2.2,1.6-3.2,2.6-5.3c1.1,0.1,1.7,0.1,2.9,0.2c0,4.4,0,6.7,0,11.1
			c-1.2,0.1-1.7,0.1-2.9,0.2c0-2.7,0-4.1,0-6.8c-0.6,1.3-0.9,2-1.5,3.4C225.4,11.8,224.9,11.8,224.1,11.9z"/>
		<path id="XMLID_91_" d="M239.2,4.6c0,0.7,0,1.1,0,1.8c-1.4-0.1-2.1-0.1-3.6-0.2c0,0.9,0,1.4,0,2.4c1.3,0,2,0,3.3,0.1
			c0,0.7,0,1.1,0,1.8c-1.3,0-2,0-3.3,0c0,0.6,0,0.9,0,1.4c0,0.4,0.1,0.7,0.3,0.8c0.2,0.1,0.4,0.2,0.6,0.2c1.1-0.1,1.7-0.1,2.8-0.1
			c0,0.7,0,1,0,1.7c-1.2,0.1-1.8,0.1-3,0.2c-0.6,0-1.1,0-1.6,0c-0.5-0.1-0.8-0.2-1.2-0.4c-0.3-0.2-0.5-0.5-0.7-0.9
			c-0.2-0.4-0.2-0.9-0.2-1.5c0-3.1,0-4.6,0-7.7C235.3,4.3,236.6,4.4,239.2,4.6z"/>
	</g>
</g>
</svg>
