<?xml version="1.0" encoding="utf-8"?>
<!-- Generator: Adobe Illustrator 19.0.0, SVG Export Plug-In . SVG Version: 6.00 Build 0)  -->
<svg version="1.1" id="svg_9" xmlns="http://www.w3.org/2000/svg" xmlns:xlink="http://www.w3.org/1999/xlink" x="0px" y="0px"
	 viewBox="0 0 114.1 239" style="enable-background:new 0 0 114.1 239;" xml:space="preserve">
<style type="text/css">

	#svg_9:hover {
	background-color: black;
	fill:white;
	}
	.st0{fill:#FFFFFF;}
	.st1{font-family:'3ds-CondensedBold';}
	.st2{font-size:12px;}
</style>
<g id="XMLID_1_">
	<circle id="XMLID_27_" class="st0" cx="60.3" cy="43.8" r="25.5"/>
	<path id="XMLID_24_" d="M85.8,43.4c0,0,0,0.6,0,1.8c0,0.6,0,1.3-0.1,2.2c0,0.4,0,0.9-0.1,1.4c-0.1,0.5-0.1,1-0.2,1.6
		c-0.4,2.2-0.9,5-2.3,7.9c-0.3,0.7-0.8,1.5-1.2,2.2c-0.4,0.8-1,1.4-1.5,2.2c-0.6,0.7-1.3,1.3-2,2c-0.8,0.6-1.6,1.2-2.4,1.8
		c-3.3,2.3-7.5,4-12.1,4.6c-0.6,0.1-1.2,0.1-1.7,0.1l-0.9,0.1l-0.4,0c0.1,0-0.2,0-0.2,0l-0.1,0l-0.1,0l-0.2,0
		c-1.1-0.1-2.2,0-3.5-0.2c-2.5-0.3-4.9-1-7.2-1.9c-2.3-1-4.5-2.4-6.6-4c-2-1.7-3.8-3.6-5.3-5.8c-1.5-2.2-2.7-4.6-3.5-7.2
		c-0.4-1.3-0.7-2.6-0.9-3.9c-0.1-0.7-0.2-1.3-0.3-2l-0.1-2.1c0.1-1.3,0-2.4,0.3-3.9c0.1-1.4,0.5-2.7,0.8-4c0.8-2.6,1.9-5,3.3-7.3
		c1.5-2.2,3.2-4.2,5.2-5.9c2-1.7,4.1-3.1,6.5-4.2c2.3-1,4.7-1.8,7.1-2.2c1.2-0.3,2.4-0.3,3.6-0.4l0.2,0l0.1,0l0.1,0l0.2,0l0.4,0
		l0.8,0c0.6,0,1.1,0,1.7,0.1c1.2,0.2,2.4,0.3,3.5,0.6c0.5,0.1,1.1,0.3,1.6,0.4c0.5,0.2,1,0.4,1.6,0.5c2.1,0.7,3.9,1.7,5.7,2.8
		c1.6,1.2,3.3,2.2,4.5,3.7c0.6,0.7,1.2,1.4,1.6,2.2c0.4,0.8,0.9,1.4,1.3,2.2c1.5,2.9,2.1,5.6,2.5,7.8c0.1,0.5,0.2,1.1,0.3,1.6
		c0.1,0.5,0.1,1,0.2,1.4c0.1,0.8,0.2,1.6,0.2,2.2C85.7,42.8,85.8,43.4,85.8,43.4z M85.8,43.4c0,0,0-0.6-0.1-1.8c0-0.3,0-0.6-0.1-1
		c-0.1-0.4-0.2-0.7-0.3-1.2c-0.1-0.4-0.2-0.9-0.3-1.3c-0.2-0.5-0.4-0.9-0.6-1.4c-0.8-2-2.2-4.3-4.2-6.4c-1-1.1-2.1-2.1-3.3-3.1
		c-0.6-0.5-1.3-1-1.8-1.6c-0.6-0.5-1.3-1-2-1.5c-1.5-0.9-3.1-1.8-4.8-2.4c-0.4-0.2-0.9-0.3-1.3-0.5c-0.5-0.1-0.9-0.2-1.4-0.3
		c-0.9-0.3-1.9-0.3-2.8-0.5c-0.5-0.1-1.1-0.1-1.6-0.1l-0.8,0l-0.4,0c-0.1,0,0.1,0,0.1,0l0,0l-0.1,0l-0.2,0c-1,0.1-2.1,0.1-3.1,0.3
		c-2.1,0.3-4.1,1-6.1,1.8c-2,0.9-3.8,2.1-5.5,3.6c-1.7,1.5-3.1,3.2-4.4,5.1c-1.2,1.9-2.1,4-2.8,6.2c-0.3,1.1-0.6,2.2-0.7,3.3
		c-0.2,1-0.2,2.4-0.2,3.6c0-0.2,0,0,0,0l0,0.1l0,0.1l0,0.2l0,0.4l0.1,0.9c0,0.6,0.1,1.1,0.2,1.7c0.1,1.1,0.5,2.2,0.8,3.4
		c0.7,2.2,1.7,4.3,3,6.1c1.3,1.8,2.8,3.5,4.6,4.9c1.8,1.4,3.6,2.6,5.6,3.4c0.5,0.3,1,0.4,1.5,0.6c0.5,0.2,1,0.4,1.5,0.5
		c0.5,0.1,1,0.2,1.5,0.4c0.5,0.1,1,0.1,1.5,0.2c0.9,0.2,2.1,0.2,3.2,0.2l0.2,0l0.1,0l0.1,0c0,0-0.2,0-0.1,0l0.4,0l0.8-0.1
		c0.5,0,1,0,1.5-0.1c3.9-0.5,7.5-2,10.3-4c0.7-0.5,1.4-1,2-1.6c0.6-0.6,1.2-1.1,1.8-1.7c1.2-1,2.2-2.1,3.2-3.2
		c1.9-2.2,3.2-4.5,4-6.5c0.2-0.5,0.4-1,0.5-1.5c0.1-0.5,0.2-0.9,0.3-1.3c0.1-0.4,0.2-0.8,0.2-1.2c0.1-0.4,0.1-0.7,0.1-1
		C85.7,44,85.8,43.4,85.8,43.4z"/>
</g>
<g id="XMLID_3_">
	<path id="XMLID_19_" d="M61.1,63.1c0,0,0.2,1.8,0.6,4.9c0.2,1.6,0.4,3.4,0.6,5.6c0.1,1.1,0.2,2.2,0.3,3.4c0.1,1.2,0,2.5,0,3.8
		c0,10.7,0,24.9,0,39.1s0,28.4,0,39.1c0,0.7,0,1.3,0,2c0,0.6,0,1.3,0,1.9c-0.1,1.2-0.2,2.4-0.3,3.4c-0.2,2.2-0.4,4.1-0.6,5.6
		c-0.3,3.1-0.6,4.9-0.6,4.9s-0.2-1.8-0.6-4.9c-0.2-1.6-0.4-3.4-0.6-5.6c-0.1-1.1-0.2-2.2-0.3-3.4c-0.1-0.6-0.1-1.2,0-1.9
		c0-0.6,0-1.3,0-2c0-10.7,0-24.9,0-39.1s0-28.4,0-39.1c0-1.3-0.1-2.6,0-3.8c0.1-1.2,0.2-2.4,0.3-3.4c0.2-2.2,0.4-4.1,0.6-5.6
		C60.8,64.9,61.1,63.1,61.1,63.1z"/>
</g>
<g id="XMLID_2_">
	<path id="XMLID_18_" d="M61.1,169.8c0,0-0.2,1.2-0.5,3.2c-0.2,1-0.4,2.2-0.7,3.6c-0.1,0.7-0.3,1.4-0.4,2.2
		c-0.2,0.8-0.6,1.5-0.8,2.3c-2.3,6.5-5.4,15.1-8.5,23.8c-3.1,8.6-6.2,17.3-8.5,23.8c-0.1,0.4-0.3,0.8-0.4,1.2
		c-0.1,0.4-0.2,0.8-0.4,1.1c-0.4,0.7-0.7,1.4-1.1,2c-0.7,1.2-1.3,2.3-1.8,3.2c-1,1.8-1.6,2.8-1.6,2.8s0.2-1.2,0.5-3.2
		c0.2-1,0.4-2.2,0.7-3.6c0.1-0.7,0.3-1.4,0.4-2.2c0.1-0.4,0.2-0.8,0.4-1.1c0.2-0.4,0.3-0.8,0.4-1.2c2.3-6.5,5.4-15.1,8.5-23.8
		s6.2-17.3,8.5-23.8c0.3-0.8,0.5-1.6,0.8-2.3c0.4-0.7,0.7-1.4,1.1-2c0.7-1.3,1.3-2.3,1.8-3.2C60.5,170.8,61.1,169.8,61.1,169.8z"/>
</g>
<g id="XMLID_4_">
	<path id="XMLID_21_" d="M60.3,169.8c0,0,0.7,1,1.8,2.8c0.5,0.9,1.2,1.9,1.9,3.2c0.4,0.6,0.8,1.3,1.2,2c0.4,0.7,0.6,1.5,1,2.3
		c2.7,6.5,6.2,15.1,9.8,23.8c3.6,8.6,7.1,17.3,9.8,23.8c0.2,0.4,0.3,0.8,0.5,1.2c0.2,0.4,0.3,0.8,0.4,1.2c0.2,0.8,0.4,1.5,0.6,2.2
		c0.4,1.4,0.6,2.6,0.9,3.6c0.5,2,0.7,3.2,0.7,3.2s-0.7-1-1.7-2.8c-0.5-0.9-1.2-2-1.9-3.2c-0.4-0.6-0.8-1.3-1.2-2
		c-0.2-0.3-0.4-0.7-0.5-1.1c-0.1-0.4-0.3-0.8-0.5-1.2c-2.7-6.5-6.2-15.1-9.8-23.8c-3.6-8.6-7.1-17.3-9.8-23.8
		c-0.3-0.8-0.7-1.5-1-2.3c-0.2-0.8-0.4-1.5-0.6-2.2c-0.4-1.4-0.6-2.6-0.9-3.6C60.5,170.9,60.3,169.8,60.3,169.8z"/>
</g>
<g id="XMLID_5_">
	<path id="XMLID_30_" d="M61.9,90.2c0,0,0.9,0.1,2.5,0.3c0.8,0.1,1.7,0.3,2.8,0.5c0.5,0.1,1.1,0.2,1.7,0.3c0.3,0,0.6,0.2,0.9,0.3
		c0.3,0.1,0.6,0.2,0.9,0.4c4.9,1.9,11.4,4.4,17.9,6.9c6.5,2.5,13,5,17.9,6.9c0.3,0.1,0.6,0.2,0.9,0.3c0.3,0.1,0.6,0.2,0.8,0.4
		c0.5,0.3,1,0.6,1.5,0.9c0.9,0.6,1.7,1.1,2.4,1.5c1.3,0.9,2,1.4,2,1.4s-0.9-0.1-2.4-0.3c-0.8-0.1-1.7-0.3-2.8-0.5
		c-0.5-0.1-1.1-0.2-1.7-0.3c-0.3,0-0.6-0.1-0.9-0.3c-0.3-0.1-0.6-0.2-0.9-0.4c-4.9-1.9-11.4-4.4-17.9-6.9c-6.5-2.5-13-5-17.9-6.9
		c-0.3-0.1-0.6-0.2-0.9-0.3c-0.3-0.1-0.6-0.2-0.8-0.4c-0.5-0.3-1-0.6-1.5-0.9c-0.9-0.6-1.7-1.1-2.4-1.5
		C62.6,90.7,61.9,90.2,61.9,90.2z"/>
</g>
<g id="XMLID_8_">
	<path id="XMLID_15_" d="M59,125.2c0,0,0.8-0.5,2.1-1.3c0.7-0.4,1.5-0.9,2.5-1.4c0.5-0.3,1-0.5,1.5-0.8c0.3-0.2,0.6-0.2,0.9-0.3
		c0.3-0.1,0.6-0.2,0.9-0.3c5-1.6,11.7-3.7,18.3-5.8s13.3-4.2,18.3-5.8c0.3-0.1,0.6-0.2,0.9-0.3c0.3-0.1,0.6-0.2,0.9-0.2
		c0.6-0.1,1.2-0.1,1.7-0.2c1.1-0.1,2-0.2,2.8-0.3c1.6-0.1,2.5-0.2,2.5-0.2s-0.8,0.5-2.1,1.3c-0.7,0.4-1.5,0.9-2.5,1.4
		c-0.5,0.3-1,0.5-1.5,0.8c-0.3,0.2-0.6,0.3-0.9,0.3c-0.3,0.1-0.6,0.2-0.9,0.3c-5,1.6-11.7,3.7-18.3,5.8s-13.3,4.2-18.3,5.8
		c-0.3,0.1-0.6,0.2-0.9,0.3c-0.3,0.1-0.6,0.2-0.9,0.3c-0.6,0.1-1.2,0.1-1.7,0.2c-1.1,0.1-2,0.2-2.8,0.3
		C59.9,125.1,59,125.2,59,125.2z"/>
</g>
<g id="XMLID_7_">
	<path id="XMLID_31_" d="M11.1,88.6c0,0,0.9-0.2,2.3-0.4c0.7-0.1,1.6-0.3,2.7-0.4c0.5-0.1,1.1-0.1,1.6-0.2c0.3,0,0.6,0,0.9,0
		c0.3,0,0.6,0.1,0.9,0.1c5,0.4,11.7,0.9,18.3,1.4c6.7,0.5,13.3,1,18.3,1.4c0.3,0,0.6,0.1,0.9,0.1c0.3,0,0.6,0,0.9,0.1
		c0.6,0.2,1.1,0.3,1.6,0.5c1,0.3,1.9,0.6,2.6,0.8c1.4,0.5,2.2,0.7,2.2,0.7s-0.9,0.2-2.3,0.4c-0.7,0.1-1.6,0.2-2.7,0.4
		c-0.5,0.1-1.1,0.1-1.6,0.2c-0.3,0-0.6,0-0.9,0c-0.3,0-0.6-0.1-0.9-0.1c-5-0.4-11.7-0.9-18.3-1.4c-6.7-0.5-13.3-1-18.3-1.4
		c-0.3,0-0.6-0.1-0.9-0.1c-0.3,0-0.6,0-0.9-0.1c-0.6-0.2-1.1-0.3-1.6-0.5c-1-0.3-1.9-0.6-2.6-0.8C11.9,88.9,11.1,88.6,11.1,88.6z"/>
</g>
<g id="XMLID_9_">
	<path id="XMLID_34_" d="M6.4,52.1c0,0,0.4,0.5,0.9,1.5c0.3,0.5,0.6,1.1,1,1.8c0.2,0.3,0.4,0.7,0.6,1.1C9,56.6,9.1,56.8,9.1,57
		c0,0.2,0.1,0.4,0.1,0.7c0.8,3.6,1.9,8.3,3,13.1s2.2,9.5,3,13.1c0.1,0.2,0.1,0.4,0.2,0.7c0.1,0.2,0.1,0.4,0.1,0.6
		c0,0.4,0,0.8-0.1,1.2c0,0.8-0.1,1.4-0.1,2c-0.1,1.1-0.2,1.8-0.2,1.8s-0.4-0.5-0.9-1.5c-0.3-0.5-0.6-1.1-1-1.8
		c-0.2-0.3-0.4-0.7-0.6-1.1c-0.1-0.2-0.2-0.4-0.2-0.6c0-0.2-0.1-0.4-0.1-0.7c-0.8-3.6-1.9-8.3-3-13.1c-1.1-4.8-2.2-9.5-3-13.1
		c-0.1-0.2-0.1-0.4-0.2-0.7C6.1,57.5,6,57.3,6,57.1c0-0.4,0-0.8,0.1-1.2c0-0.8,0.1-1.4,0.1-2C6.3,52.7,6.4,52.1,6.4,52.1z"/>
</g>
<path id="XMLID_6_" d="M0,46c0,0,3.3,11.2,3.5,11.3s4.8,3.4,7.9-0.8s0-5.9,0-5.9s-1.1,1.6-1.3,1.8c-0.2,0.2-3.8-8.7-3.8-8.7
	S0.6,42.4,0,46z"/>
<text id="XMLID_11_" transform="matrix(1 0 0 1 36.2537 10.6667)" class="st1 st2">HI THERE </text>
</svg>
