<?xml version="1.0" encoding="utf-8"?>
<!-- Generator: Adobe Illustrator 19.0.0, SVG Export Plug-In . SVG Version: 6.00 Build 0)  -->
<svg version="1.1" id="svg_6" xmlns="http://www.w3.org/2000/svg" xmlns:xlink="http://www.w3.org/1999/xlink" x="0px" y="0px"
	 viewBox="0 0 136.4 241.9" style="enable-background:new 0 0 136.4 241.9;" xml:space="preserve">
<style type="text/css">

	#svg_6:hover {
	background-color: black;
	fill:white;
	}
	.st0{fill:#FFFFFF;}
	.st1{font-family:'3ds-CondensedBold';}
	.st2{font-size:14.8185px;}
</style>
<g id="XMLID_1_">
	<circle id="XMLID_27_" class="st0" cx="61.9" cy="46.7" r="25.5"/>
	<path id="XMLID_24_" d="M87.4,46.3c0,0,0,0.6,0,1.8c0,0.6,0,1.3-0.1,2.2c0,0.4,0,0.9-0.1,1.4c-0.1,0.5-0.1,1-0.2,1.6
		c-0.4,2.2-0.9,5-2.3,7.9c-0.3,0.7-0.8,1.5-1.2,2.2c-0.4,0.8-1,1.4-1.5,2.2c-0.6,0.7-1.3,1.3-2,2c-0.8,0.6-1.6,1.2-2.4,1.8
		c-3.3,2.3-7.5,4-12.1,4.6c-0.6,0.1-1.2,0.1-1.7,0.1l-0.9,0.1l-0.4,0c0.1,0-0.2,0-0.2,0l-0.1,0l-0.1,0l-0.2,0
		c-1.1-0.1-2.2,0-3.5-0.2c-2.5-0.3-4.9-1-7.2-1.9c-2.3-1-4.5-2.4-6.6-4c-2-1.7-3.8-3.6-5.3-5.8c-1.5-2.2-2.7-4.6-3.5-7.2
		c-0.4-1.3-0.7-2.6-0.9-3.9c-0.1-0.7-0.2-1.3-0.3-2L34.4,47c0.1-1.3,0-2.4,0.3-3.9c0.1-1.4,0.5-2.7,0.8-4c0.8-2.6,1.9-5,3.3-7.3
		c1.5-2.2,3.2-4.2,5.2-5.9c2-1.7,4.1-3.1,6.5-4.2c2.3-1,4.7-1.8,7.1-2.2c1.2-0.3,2.4-0.3,3.6-0.4l0.2,0l0.1,0l0.1,0l0.2,0l0.4,0
		l0.8,0c0.6,0,1.1,0,1.7,0.1c1.2,0.2,2.4,0.3,3.5,0.6c0.5,0.1,1.1,0.3,1.6,0.4c0.5,0.2,1,0.4,1.6,0.5c2.1,0.7,3.9,1.7,5.7,2.8
		c1.6,1.2,3.3,2.2,4.5,3.7c0.6,0.7,1.2,1.4,1.6,2.2c0.4,0.8,0.9,1.4,1.3,2.2c1.5,2.9,2.1,5.6,2.5,7.8c0.1,0.5,0.2,1.1,0.3,1.6
		c0.1,0.5,0.1,1,0.2,1.4c0.1,0.8,0.2,1.6,0.2,2.2C87.4,45.7,87.4,46.3,87.4,46.3z M87.4,46.3c0,0,0-0.6-0.1-1.8c0-0.3,0-0.6-0.1-1
		c-0.1-0.4-0.2-0.7-0.3-1.2c-0.1-0.4-0.2-0.9-0.3-1.3c-0.2-0.5-0.4-0.9-0.6-1.4c-0.8-2-2.2-4.3-4.2-6.4c-1-1.1-2.1-2.1-3.3-3.1
		c-0.6-0.5-1.3-1-1.8-1.6c-0.6-0.5-1.3-1-2-1.5c-1.5-0.9-3.1-1.8-4.8-2.4c-0.4-0.2-0.9-0.3-1.3-0.5c-0.5-0.1-0.9-0.2-1.4-0.3
		c-0.9-0.3-1.9-0.3-2.8-0.5c-0.5-0.1-1.1-0.1-1.6-0.1l-0.8,0l-0.4,0c-0.1,0,0.1,0,0.1,0l0,0l-0.1,0l-0.2,0c-1,0.1-2.1,0.1-3.1,0.3
		c-2.1,0.3-4.1,1-6.1,1.8c-2,0.9-3.8,2.1-5.5,3.6c-1.7,1.5-3.1,3.2-4.4,5.1c-1.2,1.9-2.1,4-2.8,6.2c-0.3,1.1-0.6,2.2-0.7,3.3
		c-0.2,1-0.2,2.4-0.2,3.6c0-0.2,0,0,0,0l0,0.1l0,0.1l0,0.2l0,0.4l0.1,0.9c0,0.6,0.1,1.1,0.2,1.7c0.1,1.1,0.5,2.2,0.8,3.4
		c0.7,2.2,1.7,4.3,3,6.1c1.3,1.8,2.8,3.5,4.6,4.9c1.8,1.4,3.6,2.6,5.6,3.4c0.5,0.3,1,0.4,1.5,0.6c0.5,0.2,1,0.4,1.5,0.5
		c0.5,0.1,1,0.2,1.5,0.4c0.5,0.1,1,0.1,1.5,0.2c0.9,0.2,2.1,0.2,3.2,0.2l0.2,0l0.1,0l0.1,0c0,0-0.2,0-0.1,0l0.4,0l0.8-0.1
		c0.5,0,1,0,1.5-0.1c3.9-0.5,7.5-2,10.3-4c0.7-0.5,1.4-1,2-1.6c0.6-0.6,1.2-1.1,1.8-1.7c1.2-1,2.2-2.1,3.2-3.2
		c1.9-2.2,3.2-4.5,4-6.5c0.2-0.5,0.4-1,0.5-1.5c0.1-0.5,0.2-0.9,0.3-1.3c0.1-0.4,0.2-0.8,0.2-1.2c0.1-0.4,0.1-0.7,0.1-1
		C87.4,47,87.4,46.3,87.4,46.3z"/>
</g>
<g id="XMLID_3_">
	<path id="XMLID_19_" d="M62.7,66c0,0,0.2,1.8,0.6,4.9c0.2,1.6,0.4,3.4,0.6,5.6c0.1,1.1,0.2,2.2,0.3,3.4c0.1,1.2,0,2.5,0,3.8
		c0,10.7,0,24.9,0,39.1s0,28.4,0,39.1c0,0.7,0,1.3,0,2c0,0.6,0,1.3,0,1.9c-0.1,1.2-0.2,2.4-0.3,3.4c-0.2,2.2-0.4,4.1-0.6,5.6
		c-0.3,3.1-0.6,4.9-0.6,4.9s-0.2-1.8-0.6-4.9c-0.2-1.6-0.4-3.4-0.6-5.6c-0.1-1.1-0.2-2.2-0.3-3.4c-0.1-0.6-0.1-1.2,0-1.9
		c0-0.6,0-1.3,0-2c0-10.7,0-24.9,0-39.1s0-28.4,0-39.1c0-1.3-0.1-2.6,0-3.8c0.1-1.2,0.2-2.4,0.3-3.4c0.2-2.2,0.4-4.1,0.6-5.6
		C62.5,67.8,62.7,66,62.7,66z"/>
</g>
<g id="XMLID_2_">
	<path id="XMLID_18_" d="M62.7,172.7c0,0-0.2,1.2-0.5,3.2c-0.2,1-0.4,2.2-0.7,3.6c-0.1,0.7-0.3,1.4-0.4,2.2
		c-0.2,0.8-0.6,1.5-0.8,2.3c-2.3,6.5-5.4,15.1-8.5,23.8c-3.1,8.6-6.2,17.3-8.5,23.8c-0.1,0.4-0.3,0.8-0.4,1.2
		c-0.1,0.4-0.2,0.8-0.4,1.1c-0.4,0.7-0.7,1.4-1.1,2c-0.7,1.2-1.3,2.3-1.8,3.2c-1,1.8-1.6,2.8-1.6,2.8s0.2-1.2,0.5-3.2
		c0.2-1,0.4-2.2,0.7-3.6c0.1-0.7,0.3-1.4,0.4-2.2c0.1-0.4,0.2-0.8,0.4-1.1c0.2-0.4,0.3-0.8,0.4-1.2c2.3-6.5,5.4-15.1,8.5-23.8
		s6.2-17.3,8.5-23.8c0.3-0.8,0.5-1.6,0.8-2.3c0.4-0.7,0.7-1.4,1.1-2c0.7-1.3,1.3-2.3,1.8-3.2C62.1,173.7,62.7,172.7,62.7,172.7z"/>
</g>
<g id="XMLID_4_">
	<path id="XMLID_21_" d="M61.9,172.7c0,0,0.7,1,1.8,2.8c0.5,0.9,1.2,1.9,1.9,3.2c0.4,0.6,0.8,1.3,1.2,2c0.4,0.7,0.6,1.5,1,2.3
		c2.7,6.5,6.2,15.1,9.8,23.8c3.6,8.6,7.1,17.3,9.8,23.8c0.2,0.4,0.3,0.8,0.5,1.2c0.2,0.4,0.3,0.8,0.4,1.2c0.2,0.8,0.4,1.5,0.6,2.2
		c0.4,1.4,0.6,2.6,0.9,3.6c0.5,2,0.7,3.2,0.7,3.2s-0.7-1-1.7-2.8c-0.5-0.9-1.2-2-1.9-3.2c-0.4-0.6-0.8-1.3-1.2-2
		c-0.2-0.3-0.4-0.7-0.5-1.1c-0.1-0.4-0.3-0.8-0.5-1.2c-2.7-6.5-6.2-15.1-9.8-23.8c-3.6-8.6-7.1-17.3-9.8-23.8
		c-0.3-0.8-0.7-1.5-1-2.3c-0.2-0.8-0.4-1.5-0.6-2.2c-0.4-1.4-0.6-2.6-0.9-3.6C62.1,173.8,61.9,172.7,61.9,172.7z"/>
</g>
<g id="XMLID_5_">
	<path id="XMLID_32_" d="M61.9,95.3c0,0,0.6-0.5,1.8-1.2c0.6-0.4,1.3-0.8,2.1-1.3c0.4-0.2,0.8-0.5,1.3-0.8c0.2-0.1,0.5-0.2,0.8-0.3
		c0.3-0.1,0.5-0.2,0.8-0.2c4.3-1.4,10.1-3.2,15.9-5.1c5.8-1.8,11.6-3.7,15.9-5.1c0.3-0.1,0.5-0.2,0.8-0.3c0.2-0.1,0.5-0.2,0.8-0.2
		c0.5,0,1-0.1,1.5-0.1c0.9-0.1,1.8-0.1,2.5-0.2c1.4-0.1,2.2-0.1,2.2-0.1s-0.7,0.4-1.8,1.2c-0.6,0.4-1.3,0.8-2.1,1.3
		c-0.4,0.2-0.8,0.5-1.3,0.8c-0.2,0.1-0.5,0.2-0.7,0.3c-0.3,0.1-0.5,0.2-0.8,0.2c-4.3,1.4-10.1,3.2-15.9,5.1
		C79.7,91.2,74,93,69.6,94.4c-0.3,0.1-0.5,0.2-0.8,0.3c-0.3,0.1-0.5,0.2-0.8,0.2c-0.5,0-1,0.1-1.5,0.1c-0.9,0.1-1.8,0.1-2.5,0.2
		C62.7,95.3,61.9,95.3,61.9,95.3z"/>
</g>
<g id="XMLID_8_">
	<path id="XMLID_31_" d="M108.8,81.3c0,0-0.7-0.5-1.8-1.4c-0.6-0.5-1.3-1-2-1.7c-0.4-0.3-0.8-0.7-1.2-1c-0.2-0.2-0.4-0.4-0.5-0.7
		c-0.2-0.2-0.4-0.5-0.5-0.7c-3-3.9-7.1-9-11.1-14.1s-8.1-10.3-11.1-14.1c-0.2-0.2-0.4-0.5-0.6-0.7c-0.2-0.2-0.4-0.4-0.5-0.7
		c-0.3-0.5-0.5-1-0.7-1.5c-0.5-0.9-0.8-1.7-1.1-2.4c-0.6-1.3-0.9-2.1-0.9-2.1s0.7,0.5,1.8,1.4c0.6,0.5,1.3,1,2,1.7
		c0.4,0.3,0.8,0.7,1.2,1c0.2,0.2,0.4,0.4,0.6,0.7c0.2,0.2,0.4,0.5,0.5,0.7c3,3.9,7.1,9,11.1,14.1c4,5.1,8.1,10.3,11.1,14.1
		c0.2,0.2,0.4,0.5,0.6,0.7c0.2,0.2,0.4,0.4,0.5,0.7c0.3,0.5,0.5,1,0.7,1.5c0.5,0.9,0.8,1.7,1.1,2.4
		C108.5,80.5,108.8,81.3,108.8,81.3z"/>
</g>
<g id="XMLID_10_">
	<path id="XMLID_34_" d="M46.6,39.4c0,0-0.3,0.8-0.9,2.1C45.4,42.2,45,43,44.5,44c-0.2,0.5-0.5,0.9-0.7,1.5
		c-0.1,0.3-0.3,0.5-0.5,0.7c-0.2,0.2-0.4,0.5-0.6,0.7c-3,3.9-7.1,9-11.1,14.1c-4,5.1-8.1,10.3-11.1,14.1c-0.2,0.2-0.4,0.5-0.5,0.7
		c-0.2,0.3-0.3,0.5-0.6,0.7c-0.4,0.4-0.9,0.7-1.2,1c-0.8,0.7-1.5,1.2-2,1.7c-1.2,0.9-1.8,1.4-1.8,1.4s0.3-0.8,0.9-2.1
		c0.3-0.7,0.7-1.5,1.1-2.4c0.2-0.5,0.5-0.9,0.7-1.5c0.1-0.3,0.3-0.5,0.5-0.7c0.2-0.2,0.4-0.5,0.6-0.7c3-3.9,7.1-9,11.1-14.1
		c4-5.1,8.1-10.3,11.1-14.1c0.2-0.2,0.4-0.5,0.5-0.7c0.2-0.2,0.3-0.5,0.5-0.7c0.4-0.4,0.9-0.7,1.2-1c0.8-0.7,1.5-1.2,2-1.7
		C45.9,39.9,46.6,39.4,46.6,39.4z"/>
</g>
<g id="XMLID_7_">
	<path id="XMLID_28_" d="M13.9,79.7c0,0,0.8,0,2.3,0.1c0.7,0.1,1.6,0.1,2.6,0.2c0.5,0,1,0.1,1.6,0.2c0.3,0,0.5,0.1,0.8,0.2
		c0.3,0.1,0.6,0.2,0.8,0.3c4.6,1.5,10.7,3.4,16.9,5.4c6.1,2,12.3,3.9,16.9,5.4c0.3,0.1,0.6,0.2,0.8,0.3c0.3,0.1,0.6,0.1,0.8,0.3
		c0.5,0.3,1,0.5,1.4,0.8c0.9,0.5,1.6,0.9,2.2,1.3c1.2,0.8,1.9,1.2,1.9,1.2s-0.8,0-2.3-0.1C59.9,95.1,59,95,58,94.9
		c-0.5,0-1-0.1-1.6-0.2c-0.3,0-0.6-0.1-0.8-0.2c-0.3-0.1-0.6-0.2-0.8-0.3c-4.6-1.5-10.7-3.4-16.9-5.4c-6.1-2-12.3-3.9-16.9-5.4
		c-0.3-0.1-0.6-0.2-0.8-0.3c-0.3-0.1-0.6-0.1-0.8-0.3c-0.5-0.3-1-0.5-1.4-0.8c-0.9-0.5-1.6-0.9-2.2-1.3
		C14.6,80.1,13.9,79.7,13.9,79.7z"/>
</g>
<text id="XMLID_9_" transform="matrix(1.1464 -2.006200e-003 1.750000e-003 1 2.195615e-002 12.5746)" class="st1 st2">AHH....I MESSED UP</text>
</svg>
