<?xml version="1.0" encoding="utf-8"?>
<!-- Generator: Adobe Illustrator 19.0.0, SVG Export Plug-In . SVG Version: 6.00 Build 0)  -->
<svg version="1.1" id="svg_5" xmlns="http://www.w3.org/2000/svg" xmlns:xlink="http://www.w3.org/1999/xlink" x="0px" y="0px"
	 viewBox="0 0 180 222.1" style="enable-background:new 0 0 180 222.1;" xml:space="preserve">
<style type="text/css">

	#svg_5:hover {
	background-color: black;
	fill:white;
	}
	.st0{fill:#FFFFFF;}
	.st1{font-family:'3ds-CondensedBold';}
	.st2{font-size:14.8185px;}
</style>
<g id="XMLID_1_">
	<circle id="XMLID_42_" class="st0" cx="40.7" cy="27.5" r="25.5"/>
	<path id="XMLID_27_" d="M64.7,19c0,0,0.2,0.6,0.5,1.7c0.2,0.6,0.4,1.3,0.6,2.1c0.1,0.4,0.2,0.9,0.3,1.3c0.1,0.5,0.2,1,0.3,1.6
		c0.4,2.2,0.8,5,0.4,8.2c-0.1,0.8-0.3,1.6-0.4,2.5c-0.2,0.9-0.5,1.7-0.8,2.6c-0.3,0.9-0.8,1.7-1.3,2.5c-0.5,0.8-1.1,1.6-1.7,2.5
		c-2.4,3.2-5.8,6.2-10,8.2c-0.5,0.3-1.1,0.5-1.6,0.7l-0.8,0.3l-0.4,0.2c0.1,0-0.1,0.1-0.1,0.1l0,0l-0.1,0l-0.2,0.1
		c-1.1,0.3-2.1,0.7-3.4,0.9C43.5,55,41,55,38.5,54.9c-2.5-0.2-5-0.8-7.5-1.7c-2.4-0.9-4.7-2.2-6.9-3.8c-2.1-1.6-4-3.6-5.6-5.7
		c-0.8-1.1-1.5-2.2-2.1-3.4c-0.3-0.6-0.6-1.2-0.9-1.8l-0.8-2c-0.3-1.2-0.8-2.3-1-3.8c-0.3-1.4-0.4-2.7-0.5-4.1
		c-0.1-2.7,0.2-5.4,0.8-8c0.7-2.6,1.7-5,3-7.3c1.4-2.2,2.9-4.3,4.8-6c1.9-1.7,3.9-3.2,6.1-4.3c1.1-0.6,2.2-1,3.3-1.5l0.2-0.1l0.1,0
		l0.1,0l0.1,0l0.4-0.1l0.8-0.2c0.5-0.1,1-0.3,1.6-0.4c1.2-0.2,2.4-0.5,3.5-0.6c0.6,0,1.1-0.1,1.7-0.1c0.6,0,1.1,0,1.7,0
		c2.2,0,4.3,0.4,6.2,0.8c1.9,0.6,3.8,1.1,5.4,2.1c0.8,0.5,1.5,1,2.2,1.5C55.8,5,56.5,5.5,57,6.1c2.3,2.3,3.8,4.7,4.9,6.6
		c0.3,0.5,0.5,1,0.7,1.4c0.2,0.4,0.4,0.9,0.6,1.3c0.4,0.8,0.7,1.4,0.9,2C64.5,18.5,64.7,19,64.7,19z M64.7,19c0,0-0.2-0.6-0.7-1.7
		c-0.1-0.3-0.2-0.6-0.4-0.9c-0.2-0.3-0.4-0.6-0.6-1c-0.2-0.4-0.5-0.8-0.7-1.1c-0.3-0.4-0.6-0.8-1-1.2c-1.4-1.6-3.4-3.4-6-4.8
		C54,7.7,52.7,7,51.2,6.4c-0.7-0.3-1.5-0.5-2.2-0.9c-0.8-0.3-1.6-0.5-2.4-0.8C44.8,4.3,43.1,4,41.2,4c-0.5,0-0.9,0-1.4,0
		c-0.5,0-0.9,0.1-1.4,0.1c-1,0-1.9,0.3-2.8,0.4c-0.5,0.1-1,0.3-1.5,0.4l-0.8,0.2l-0.4,0.1c-0.1,0,0.1,0,0,0l0,0l-0.1,0l-0.2,0.1
		c-0.9,0.4-1.9,0.7-2.8,1.3c-1.9,0.9-3.6,2.2-5.2,3.7c-1.6,1.5-2.9,3.2-4.1,5.1c-1.1,1.9-2,4-2.6,6.2c-0.6,2.2-0.8,4.5-0.7,6.8
		c0.1,1.1,0.2,2.3,0.4,3.4c0.1,1,0.6,2.3,0.9,3.5c-0.1-0.2,0,0,0,0l0,0.1l0,0.1l0.1,0.2l0.2,0.4l0.3,0.8c0.2,0.5,0.5,1,0.8,1.6
		c0.5,1,1.2,2,1.8,2.9c1.4,1.8,3,3.5,4.8,4.9c1.8,1.3,3.8,2.5,5.9,3.2c2.1,0.7,4.2,1.3,6.4,1.4c0.5,0.1,1.1,0,1.6,0.1
		c0.5,0,1.1,0,1.6,0c0.5,0,1.1-0.1,1.6-0.1c0.5,0,1-0.2,1.5-0.3c0.9-0.1,2.1-0.5,3.1-0.8l0.2-0.1l0.1,0l0,0c0,0-0.2,0-0.1,0l0.4-0.1
		l0.7-0.3c0.5-0.2,0.9-0.4,1.4-0.6c3.6-1.8,6.5-4.3,8.5-7c0.5-0.7,1-1.4,1.4-2.1c0.3-0.8,0.8-1.4,1.2-2.1c0.8-1.4,1.5-2.7,2-4.1
		c1.1-2.7,1.6-5.3,1.7-7.5c0-0.5,0-1.1,0-1.5c0-0.5-0.1-0.9-0.1-1.4c-0.1-0.4-0.1-0.8-0.2-1.2c-0.1-0.4-0.2-0.7-0.2-1
		C64.9,19.6,64.7,19,64.7,19z"/>
</g>
<g id="XMLID_3_">
	<path id="XMLID_19_" d="M51.9,46.3c0,0,0.2,1.8,0.6,4.9c0.2,1.6,0.4,3.4,0.6,5.6c0.1,1.1,0.2,2.2,0.3,3.4c0.1,1.2,0,2.5,0,3.8
		c0,10.7,0,24.9,0,39.1s0,28.4,0,39.1c0,0.7,0,1.3,0,2c0,0.6,0,1.3,0,1.9c-0.1,1.2-0.2,2.4-0.3,3.4c-0.2,2.2-0.4,4.1-0.6,5.6
		c-0.3,3.1-0.6,4.9-0.6,4.9s-0.2-1.8-0.6-4.9c-0.2-1.6-0.4-3.4-0.6-5.6c-0.1-1.1-0.2-2.2-0.3-3.4c-0.1-0.6-0.1-1.2,0-1.9
		c0-0.6,0-1.3,0-2c0-10.7,0-24.9,0-39.1s0-28.4,0-39.1c0-1.3-0.1-2.6,0-3.8c0.1-1.2,0.2-2.4,0.3-3.4c0.2-2.2,0.4-4.1,0.6-5.6
		C51.7,48.1,51.9,46.3,51.9,46.3z"/>
</g>
<g id="XMLID_2_">
	<path id="XMLID_18_" d="M51.9,152.9c0,0-0.2,1.2-0.5,3.2c-0.2,1-0.4,2.2-0.7,3.6c-0.1,0.7-0.3,1.4-0.4,2.2
		c-0.2,0.8-0.6,1.5-0.8,2.3c-2.3,6.5-5.4,15.1-8.5,23.8c-3.1,8.6-6.2,17.3-8.5,23.8c-0.1,0.4-0.3,0.8-0.4,1.2
		c-0.1,0.4-0.2,0.8-0.4,1.1c-0.4,0.7-0.7,1.4-1.1,2c-0.7,1.2-1.3,2.3-1.8,3.2c-1,1.8-1.6,2.8-1.6,2.8s0.2-1.2,0.5-3.2
		c0.2-1,0.4-2.2,0.7-3.6c0.1-0.7,0.3-1.4,0.4-2.2c0.1-0.4,0.2-0.8,0.4-1.1c0.2-0.4,0.3-0.8,0.4-1.2c2.3-6.5,5.4-15.1,8.5-23.8
		s6.2-17.3,8.5-23.8c0.3-0.8,0.5-1.6,0.8-2.3c0.4-0.7,0.7-1.4,1.1-2c0.7-1.3,1.3-2.3,1.8-3.2C51.3,153.9,51.9,152.9,51.9,152.9z"/>
</g>
<g id="XMLID_4_">
	<path id="XMLID_21_" d="M51.1,152.9c0,0,0.7,1,1.8,2.8c0.5,0.9,1.2,1.9,1.9,3.2c0.4,0.6,0.8,1.3,1.2,2c0.4,0.7,0.6,1.5,1,2.3
		c2.7,6.5,6.2,15.1,9.8,23.8c3.6,8.6,7.1,17.3,9.8,23.8c0.2,0.4,0.3,0.8,0.5,1.2c0.2,0.4,0.3,0.8,0.4,1.2c0.2,0.8,0.4,1.5,0.6,2.2
		c0.4,1.4,0.6,2.6,0.9,3.6c0.5,2,0.7,3.2,0.7,3.2s-0.7-1-1.7-2.8c-0.5-0.9-1.2-2-1.9-3.2c-0.4-0.6-0.8-1.3-1.2-2
		c-0.2-0.3-0.4-0.7-0.5-1.1c-0.1-0.4-0.3-0.8-0.5-1.2c-2.7-6.5-6.2-15.1-9.8-23.8c-3.6-8.6-7.1-17.3-9.8-23.8
		c-0.3-0.8-0.7-1.5-1-2.3c-0.2-0.8-0.4-1.5-0.6-2.2c-0.4-1.4-0.6-2.6-0.9-3.6C51.3,154.1,51.1,152.9,51.1,152.9z"/>
</g>
<g id="XMLID_5_">
	<path id="XMLID_30_" d="M47.1,75.5c0,0,1.3-0.7,3.6-1.7c1.2-0.5,2.6-1.2,4.2-1.9c0.8-0.4,1.7-0.7,2.6-1.2c0.9-0.4,2-0.6,3-0.9
		c8.3-2.6,19.4-6,30.5-9.5c11.1-3.4,22.1-6.9,30.5-9.5c0.5-0.2,1-0.3,1.5-0.5c0.5-0.2,1-0.3,1.5-0.4c1-0.2,1.9-0.4,2.8-0.5
		c1.7-0.3,3.3-0.6,4.5-0.8c2.5-0.4,4-0.6,4-0.6s-1.3,0.6-3.6,1.7c-1.2,0.5-2.6,1.2-4.2,1.9c-0.8,0.4-1.7,0.7-2.6,1.2
		c-0.5,0.2-0.9,0.4-1.4,0.5c-0.5,0.1-1,0.3-1.5,0.5c-8.3,2.6-19.4,6-30.5,9.5s-22.1,6.9-30.5,9.5c-1.1,0.3-2,0.7-3,0.9
		c-1,0.2-1.9,0.4-2.8,0.5c-1.7,0.3-3.3,0.6-4.5,0.8C48.6,75.3,47.1,75.5,47.1,75.5z"/>
</g>
<g id="XMLID_6_">
	<path id="XMLID_32_" d="M53.2,73.6c0,0-0.3,0.2-0.9,0.5c-0.6,0.3-1.4,0.8-2.4,1.3c-1,0.6-2.3,1.2-3.8,2c-0.7,0.4-1.5,0.8-2.3,1.2
		c-0.4,0.2-0.9,0.3-1.3,0.5c-0.5,0.1-0.9,0.3-1.4,0.5c-3.8,1.4-8.2,2.9-12.9,4.7c-4.7,1.8-9.7,3.7-14.5,5.8
		c-1.2,0.5-2.4,1.1-3.4,1.7c-0.2,0.1-0.5,0.3-0.5,0.3l0,0l0,0c0,0,0.1-0.1,0.1-0.1c0,0,0.1-0.1,0.1-0.1c0-0.1,0.1-0.1,0.1-0.2
		c0.1-0.2,0.1-0.4,0-0.7c-0.1-0.2-0.2-0.4-0.3-0.5c-0.3-0.3-0.3-0.2-0.2-0.2c0.3,0.1,1,0.2,1.6,0.2c2.5,0.1,5.1,0,7.6-0.1
		c5-0.2,9.6-0.6,13.6-0.9c2-0.3,3.8-0.1,5.5-0.1c1.6,0.1,3.1,0.1,4.3,0.2c2.4,0.1,3.7,0.2,3.7,0.2s-1.3,0.4-3.6,0.9
		c-1.1,0.3-2.5,0.6-4.2,1c-1.6,0.3-3.4,0.9-5.4,0.9c-4,0.3-8.7,0.7-13.7,1c-2.5,0.1-5.1,0.2-7.9,0.1c-0.7-0.1-1.4-0.1-2.3-0.4
		c-0.3-0.1-0.5-0.1-1.1-0.7c-0.1-0.2-0.3-0.4-0.4-0.7c-0.1-0.3-0.1-0.7,0-0.9c0-0.1,0.1-0.2,0.1-0.3c0-0.1,0.1-0.2,0.1-0.2
		c0-0.1,0.1-0.1,0.2-0.2l0.1-0.1c0.5-0.4,0.8-0.6,1.1-0.8c1.3-0.7,2.5-1.3,3.8-1.8c5-2.2,10-4.1,14.7-5.8c4.7-1.8,9.1-3.4,12.9-4.7
		c0.5-0.2,0.9-0.3,1.4-0.5c0.4-0.2,0.9-0.4,1.3-0.5c0.9-0.2,1.8-0.4,2.6-0.6c1.6-0.4,3-0.6,4.2-0.8c1.2-0.2,2.1-0.4,2.7-0.5
		C52.9,73.7,53.2,73.6,53.2,73.6z"/>
</g>
<g id="XMLID_7_">
	<path id="XMLID_34_" d="M129,72.2c0,0,2.6-1,6.6-2.4c2-0.7,4.3-1.4,6.8-2.1c1.3-0.4,2.5-0.8,3.9-1.1c1.3-0.4,2.7-0.7,4-1.1
		c1.4-0.4,2.7-0.7,4-1c1.3-0.4,2.6-0.6,3.9-1c2.5-0.6,4.9-1.1,7-1.6c4.1-0.9,6.9-1.3,6.9-1.3s-2.6,1-6.6,2.4c-2,0.7-4.3,1.4-6.8,2.1
		c-1.3,0.4-2.5,0.8-3.9,1.1c-1.3,0.4-2.7,0.7-4,1.1c-1.4,0.3-2.7,0.7-4,1c-1.3,0.4-2.6,0.6-3.9,1c-2.5,0.6-4.9,1.1-7,1.6
		C131.7,71.8,129,72.2,129,72.2z"/>
</g>
<g id="XMLID_8_">
	<path id="XMLID_36_" d="M136.9,73.6c0,0,2.6-1,6.6-2.3c2-0.7,4.3-1.4,6.8-2.1c1.3-0.4,2.5-0.8,3.9-1.1c1.3-0.4,2.7-0.7,4-1.1
		c1.4-0.3,2.7-0.7,4-1c1.3-0.4,2.6-0.6,3.9-1c2.5-0.6,4.9-1.1,7-1.5c4.1-0.8,6.9-1.2,6.9-1.2s-2.6,1-6.6,2.3c-2,0.7-4.3,1.4-6.8,2.1
		c-1.3,0.4-2.5,0.8-3.9,1.1c-1.3,0.4-2.7,0.7-4,1.1c-1.4,0.3-2.7,0.7-4,1c-1.3,0.3-2.6,0.6-3.9,1c-2.5,0.6-4.9,1.1-7,1.5
		C139.6,73.2,136.9,73.6,136.9,73.6z"/>
</g>
<g id="XMLID_10_">
	<path id="XMLID_40_" d="M0,114.6c0,0,2.5-1.3,6.3-3c1.9-0.9,4.1-1.8,6.6-2.8c1.2-0.5,2.5-1,3.7-1.5c1.3-0.5,2.6-1,3.9-1.5
		c1.3-0.5,2.6-1,3.9-1.5c1.3-0.5,2.6-0.9,3.8-1.4c2.5-0.9,4.8-1.6,6.8-2.3c4-1.3,6.7-1.9,6.7-1.9s-2.5,1.3-6.3,3
		c-1.9,0.9-4.1,1.8-6.6,2.8c-1.2,0.5-2.5,1-3.7,1.5c-1.3,0.5-2.6,1-3.9,1.5c-1.3,0.5-2.6,1-3.9,1.5c-1.3,0.5-2.6,0.9-3.8,1.4
		c-2.5,0.9-4.8,1.6-6.8,2.3C2.7,113.9,0,114.6,0,114.6z"/>
</g>
<g id="XMLID_24_">
	<path id="XMLID_38_" d="M7.7,115.2c0,0,2.5-1.3,6.3-3c1.9-0.9,4.1-1.8,6.6-2.8c1.2-0.5,2.5-1,3.7-1.5c1.3-0.5,2.6-1,3.9-1.5
		c1.3-0.5,2.6-1,3.9-1.5c1.3-0.5,2.6-0.9,3.8-1.4c2.5-0.9,4.8-1.6,6.8-2.3c4-1.3,6.7-1.9,6.7-1.9s-2.5,1.3-6.3,3
		c-1.9,0.9-4.1,1.8-6.6,2.8c-1.2,0.5-2.5,1-3.7,1.5c-1.3,0.5-2.6,1-3.9,1.5c-1.3,0.5-2.6,1-3.9,1.5c-1.3,0.5-2.6,0.9-3.8,1.4
		c-2.5,0.9-4.8,1.6-6.8,2.3C10.4,114.5,7.7,115.2,7.7,115.2z"/>
</g>
<text id="XMLID_9_" transform="matrix(1.0934 -0.3446 0.3006 0.9538 62.4182 88.2819)" class="st1 st2">DAB FOR THAT</text>
</svg>
